Labtop Unicase.ufo
<glyph name="quotedbl" format="1">
  <advance width="245"/>
  <unicode hex="0022"/>
  <outline>
    <contour>
      <point x="192" y="591" type="line"/>
      <point x="192" y="784" type="line"/>
      <point x="154" y="784" type="line"/>
      <point x="154" y="591" type="line"/>
    </contour>
    <contour>
      <point x="94" y="591" type="line"/>
      <point x="94" y="784" type="line"/>
      <point x="56" y="784" type="line"/>
      <point x="56" y="591" type="line"/>
    </contour>
  </outline>
</glyph>
<glyph name="numbersign" format="1">
  <advance width="399"/>
  <unicode hex="0023"/>
  <outline>
    <contour>
      <point x="382" y="437" type="line"/>
      <point x="282" y="436" type="line"/>
      <point x="294" y="565" type="line"/>
      <point x="260" y="565" type="line"/>
      <point x="249" y="436" type="line"/>
      <point x="172" y="435" type="line"/>
      <point x="184" y="564" type="line"/>
      <point x="151" y="564" type="line"/>
      <point x="139" y="435" type="line"/>
      <point x="39" y="435" type="line"/>
      <point x="35" y="401" type="line"/>
      <point x="136" y="402" type="line"/>
      <point x="126" y="299" type="line"/>
      <point x="26" y="299" type="line"/>
      <point x="22" y="265" type="line"/>
      <point x="124" y="266" type="line"/>
      <point x="112" y="137" type="line"/>
      <point x="145" y="137" type="line"/>
      <point x="156" y="266" type="line"/>
      <point x="232" y="266" type="line"/>
      <point x="221" y="139" type="line"/>
      <point x="255" y="139" type="line"/>
      <point x="266" y="266" type="line"/>
      <point x="367" y="267" type="line"/>
      <point x="370" y="300" type="line"/>
      <point x="270" y="300" type="line"/>
      <point x="279" y="404" type="line"/>
      <point x="380" y="404" type="line"/>
    </contour>
    <contour>
      <point x="245" y="402" type="line"/>
      <point x="236" y="300" type="line"/>
      <point x="160" y="299" type="line"/>
      <point x="170" y="402" type="line"/>
    </contour>
  </outline>
</glyph>
<glyph name="dollar" format="1">
  <advance width="285"/>
  <unicode hex="0024"/>
  <outline>
    <contour>
      <point x="246" y="382" type="line"/>
      <point x="245" y="382" type="line"/>
      <point x="236" y="465"/>
      <point x="160" y="471" type="qcurve"/>
      <point x="160" y="785" type="line"/>
      <point x="214" y="778"/>
      <point x="214" y="692" type="qcurve" smooth="yes"/>
      <point x="214" y="627" type="line"/>
      <point x="246" y="627" type="line"/>
      <point x="246" y="690" type="line" smooth="yes"/>
      <point x="246" y="803"/>
      <point x="160" y="811" type="qcurve"/>
      <point x="160" y="856" type="line"/>
      <point x="130" y="856" type="line"/>
      <point x="130" y="811" type="line"/>
      <point x="39" y="805"/>
      <point x="39" y="690" type="qcurve" smooth="yes"/>
      <point x="39" y="569" type="line" smooth="yes"/>
      <point x="39" y="453"/>
      <point x="130" y="447" type="qcurve"/>
      <point x="130" y="20" type="line"/>
      <point x="74" y="26"/>
      <point x="74" y="112" type="qcurve" smooth="yes"/>
      <point x="74" y="171" type="line"/>
      <point x="39" y="171" type="line"/>
      <point x="39" y="114" type="line" smooth="yes"/>
      <point x="39" y="-1"/>
      <point x="130" y="-8" type="qcurve"/>
      <point x="130" y="-50" type="line"/>
      <point x="160" y="-50" type="line"/>
      <point x="160" y="-8" type="line"/>
      <point x="246" y="0"/>
      <point x="246" y="114" type="qcurve" smooth="yes"/>
    </contour>
    <contour>
      <point x="214" y="112" type="line" smooth="yes"/>
      <point x="214" y="28"/>
      <point x="160" y="20" type="qcurve"/>
      <point x="160" y="445" type="line"/>
      <point x="214" y="436"/>
      <point x="214" y="371" type="qcurve" smooth="yes"/>
    </contour>
    <contour>
      <point x="130" y="472" type="line"/>
      <point x="74" y="480"/>
      <point x="74" y="566" type="qcurve" smooth="yes"/>
      <point x="74" y="692" type="line" smooth="yes"/>
      <point x="74" y="779"/>
      <point x="130" y="785" type="qcurve"/>
    </contour>
  </outline>
</glyph>
<glyph name="ampersand" format="1">
  <advance width="285"/>
  <unicode hex="0026"/>
  <outline>
    <contour>
      <point x="327" y="-109" type="qcurve"/>
      <point x="327" y="-83" type="line"/>
      <point x="257" y="-83"/>
      <point x="257" y="11" type="qcurve" smooth="yes"/>
      <point x="257" y="244" type="line"/>
      <point x="256" y="244" type="line"/>
      <point x="250" y="349"/>
      <point x="152" y="349" type="qcurve"/>
      <point x="152" y="322" type="line"/>
      <point x="222" y="322"/>
      <point x="222" y="230" type="qcurve" smooth="yes"/>
      <point x="222" y="95" type="line" smooth="yes"/>
      <point x="222" y="49"/>
      <point x="199" y="32" type="qcurve" smooth="yes"/>
      <point x="178" y="17"/>
      <point x="131" y="17" type="qcurve" smooth="yes"/>
      <point x="61" y="17"/>
      <point x="61" y="112" type="qcurve" smooth="yes"/>
      <point x="61" y="360" type="line" smooth="yes"/>
      <point x="61" y="416"/>
      <point x="72" y="427" type="qcurve" smooth="yes"/>
      <point x="100" y="455"/>
      <point x="142" y="455" type="qcurve" smooth="yes"/>
      <point x="214" y="455"/>
      <point x="235" y="505" type="qcurve" smooth="yes"/>
      <point x="246" y="532"/>
      <point x="246" y="576" type="qcurve" smooth="yes"/>
      <point x="246" y="690" type="line" smooth="yes"/>
      <point x="246" y="811"/>
      <point x="142" y="811" type="qcurve" smooth="yes"/>
      <point x="39" y="811"/>
      <point x="39" y="690" type="qcurve" smooth="yes"/>
      <point x="39" y="576" type="line" smooth="yes"/>
      <point x="39" y="488"/>
      <point x="85" y="467" type="qcurve"/>
      <point x="48" y="449"/>
      <point x="37" y="425" type="qcurve"/>
      <point x="29" y="404"/>
      <point x="29" y="359" type="qcurve" smooth="yes"/>
      <point x="29" y="114" type="line" smooth="yes"/>
      <point x="29" y="-8"/>
      <point x="131" y="-8" type="qcurve" smooth="yes"/>
      <point x="196" y="-8"/>
      <point x="222" y="12" type="qcurve"/>
      <point x="225" y="-109"/>
    </contour>
    <contour>
      <point x="212" y="574" type="line" smooth="yes"/>
      <point x="212" y="480"/>
      <point x="72" y="480"/>
      <point x="72" y="574" type="qcurve" smooth="yes"/>
      <point x="72" y="692" type="line" smooth="yes"/>
      <point x="72" y="785"/>
      <point x="212" y="785"/>
      <point x="212" y="692" type="qcurve" smooth="yes"/>
    </contour>
  </outline>
</glyph>
<glyph name="parenleft" format="1">
  <advance width="150"/>
  <unicode hex="0028"/>
  <outline>
    <contour>
      <point x="142" y="-231" type="qcurve"/>
      <point x="142" y="-206" type="line"/>
      <point x="101" y="-205"/>
      <point x="84" y="-179" type="qcurve"/>
      <point x="72" y="-158"/>
      <point x="72" y="-113" type="qcurve" smooth="yes"/>
      <point x="72" y="746" type="line" smooth="yes"/>
      <point x="72" y="794"/>
      <point x="84" y="812" type="qcurve"/>
      <point x="90" y="823"/>
      <point x="106" y="832" type="qcurve"/>
      <point x="123" y="839"/>
      <point x="142" y="840" type="qcurve"/>
      <point x="142" y="866" type="line"/>
      <point x="82" y="863"/>
      <point x="60" y="832" type="qcurve"/>
      <point x="39" y="805"/>
      <point x="39" y="745" type="qcurve" smooth="yes"/>
      <point x="39" y="-110" type="line" smooth="yes"/>
      <point x="39" y="-169"/>
      <point x="60" y="-198" type="qcurve" smooth="yes"/>
      <point x="82" y="-229"/>
    </contour>
  </outline>
</glyph>
<glyph name="plus" format="1">
  <advance width="366"/>
  <unicode hex="002B"/>
  <outline>
    <contour>
      <point x="348" y="324" type="line"/>
      <point x="348" y="355" type="line"/>
      <point x="200" y="355" type="line"/>
      <point x="200" y="502" type="line"/>
      <point x="168" y="502" type="line"/>
      <point x="168" y="355" type="line"/>
      <point x="20" y="355" type="line"/>
      <point x="20" y="324" type="line"/>
      <point x="168" y="324" type="line"/>
      <point x="168" y="175" type="line"/>
      <point x="200" y="175" type="line"/>
      <point x="200" y="324" type="line"/>
    </contour>
  </outline>
</glyph>
<glyph name="period" format="1">
  <advance width="142"/>
  <unicode hex="002E"/>
  <outline>
    <contour>
      <point x="87" y="4" type="line"/>
      <point x="87" y="41" type="line"/>
      <point x="55" y="41" type="line"/>
      <point x="55" y="4" type="line"/>
    </contour>
  </outline>
</glyph>
<glyph name="slash" format="1">
  <advance width="291"/>
  <unicode hex="002F"/>
  <outline>
    <contour>
      <point x="287" y="811" type="line"/>
      <point x="254" y="811" type="line"/>
      <point x="6" y="0" type="line"/>
      <point x="39" y="0" type="line"/>
    </contour>
  </outline>
</glyph>
<glyph name="one" format="1">
  <advance width="132"/>
  <unicode hex="0031"/>
  <outline>
    <contour>
      <point x="111" y="0" type="line"/>
      <point x="111" y="31" type="line"/>
      <point x="84" y="31" type="line"/>
      <point x="84" y="804" type="line"/>
      <point x="15" y="776" type="line"/>
      <point x="15" y="745" type="line"/>
      <point x="50" y="759" type="line"/>
      <point x="50" y="31" type="line"/>
      <point x="24" y="31" type="line"/>
      <point x="24" y="0" type="line"/>
    </contour>
  </outline>
</glyph>
<glyph name="two" format="1">
  <advance width="272"/>
  <unicode hex="0032"/>
  <outline>
    <contour>
      <point x="246" y="0" type="line"/>
      <point x="246" y="27" type="line"/>
      <point x="72" y="27" type="line"/>
      <point x="72" y="356" type="line" smooth="yes"/>
      <point x="72" y="378"/>
      <point x="75" y="390" type="qcurve" smooth="yes"/>
      <point x="78" y="404"/>
      <point x="86" y="412" type="qcurve" smooth="yes"/>
      <point x="96" y="422"/>
      <point x="108" y="424" type="qcurve"/>
      <point x="119" y="429"/>
      <point x="142" y="431" type="qcurve" smooth="yes"/>
      <point x="203" y="437"/>
      <point x="225" y="456" type="qcurve"/>
      <point x="246" y="477"/>
      <point x="246" y="539" type="qcurve" smooth="yes"/>
      <point x="246" y="690" type="line" smooth="yes"/>
      <point x="246" y="811"/>
      <point x="142" y="811" type="qcurve" smooth="yes"/>
      <point x="39" y="811"/>
      <point x="39" y="690" type="qcurve" smooth="yes"/>
      <point x="39" y="632" type="line"/>
      <point x="72" y="632" type="line"/>
      <point x="72" y="692" type="line" smooth="yes"/>
      <point x="72" y="785"/>
      <point x="212" y="785"/>
      <point x="212" y="692" type="qcurve" smooth="yes"/>
      <point x="212" y="541" type="line" smooth="yes"/>
      <point x="212" y="490"/>
      <point x="197" y="477" type="qcurve"/>
      <point x="186" y="466"/>
      <point x="131" y="460" type="qcurve"/>
      <point x="107" y="459"/>
      <point x="87" y="452" type="qcurve" smooth="yes"/>
      <point x="69" y="445"/>
      <point x="58" y="432" type="qcurve" smooth="yes"/>
      <point x="46" y="417"/>
      <point x="44" y="402" type="qcurve"/>
      <point x="39" y="386"/>
      <point x="39" y="357" type="qcurve" smooth="yes"/>
      <point x="39" y="0" type="line"/>
    </contour>
  </outline>
</glyph>
<glyph name="three" format="1">
  <advance width="265"/>
  <unicode hex="0033"/>
  <outline>
    <contour>
      <point x="234" y="114" type="qcurve" smooth="yes"/>
      <point x="234" y="365" type="line" smooth="yes"/>
      <point x="234" y="444"/>
      <point x="175" y="461" type="qcurve"/>
      <point x="234" y="481"/>
      <point x="234" y="559" type="qcurve" smooth="yes"/>
      <point x="234" y="690" type="line" smooth="yes"/>
      <point x="234" y="811"/>
      <point x="130" y="811" type="qcurve" smooth="yes"/>
      <point x="27" y="811"/>
      <point x="27" y="690" type="qcurve" smooth="yes"/>
      <point x="27" y="632" type="line"/>
      <point x="60" y="632" type="line"/>
      <point x="60" y="692" type="line" smooth="yes"/>
      <point x="60" y="785"/>
      <point x="200" y="785"/>
      <point x="200" y="692" type="qcurve" smooth="yes"/>
      <point x="200" y="562" type="line" smooth="yes"/>
      <point x="200" y="512"/>
      <point x="187" y="495" type="qcurve"/>
      <point x="170" y="475"/>
      <point x="120" y="475" type="qcurve" smooth="yes"/>
      <point x="87" y="475" type="line"/>
      <point x="87" y="449" type="line"/>
      <point x="120" y="449" type="line" smooth="yes"/>
      <point x="168" y="449"/>
      <point x="185" y="429" type="qcurve" smooth="yes"/>
      <point x="200" y="411"/>
      <point x="200" y="361" type="qcurve" smooth="yes"/>
      <point x="200" y="112" type="line" smooth="yes"/>
      <point x="200" y="17"/>
      <point x="60" y="17"/>
      <point x="60" y="112" type="qcurve" smooth="yes"/>
      <point x="60" y="176" type="line"/>
      <point x="27" y="176" type="line"/>
      <point x="27" y="114" type="line" smooth="yes"/>
      <point x="27" y="-8"/>
      <point x="130" y="-8" type="qcurve" smooth="yes"/>
      <point x="234" y="-8"/>
    </contour>
  </outline>
</glyph>
<glyph name="four" format="1">
  <advance width="273"/>
  <unicode hex="0034"/>
  <outline>
    <contour>
      <point x="273" y="449" type="line"/>
      <point x="273" y="475" type="line"/>
      <point x="220" y="475" type="line"/>
      <point x="220" y="804" type="line"/>
      <point x="185" y="804" type="line"/>
      <point x="3" y="449" type="line"/>
      <point x="187" y="449" type="line"/>
      <point x="187" y="0" type="line"/>
      <point x="220" y="0" type="line"/>
      <point x="220" y="449" type="line"/>
    </contour>
    <contour>
      <point x="187" y="475" type="line"/>
      <point x="55" y="475" type="line"/>
      <point x="187" y="734" type="line"/>
    </contour>
  </outline>
</glyph>
<glyph name="seven" format="1">
  <advance width="222"/>
  <unicode hex="0037"/>
  <outline>
    <contour>
      <point x="222" y="804" type="line"/>
      <point x="15" y="804" type="line"/>
      <point x="15" y="776" type="line"/>
      <point x="183" y="776" type="line"/>
      <point x="5" y="0" type="line"/>
      <point x="36" y="0" type="line"/>
    </contour>
  </outline>
</glyph>
<glyph name="colon" format="1">
  <advance width="142"/>
  <unicode hex="003A"/>
  <outline>
    <contour>
      <point x="87" y="326" type="line"/>
      <point x="87" y="364" type="line"/>
      <point x="55" y="364" type="line"/>
      <point x="55" y="326" type="line"/>
    </contour>
    <contour>
      <point x="87" y="4" type="line"/>
      <point x="87" y="41" type="line"/>
      <point x="55" y="41" type="line"/>
      <point x="55" y="4" type="line"/>
    </contour>
  </outline>
</glyph>
<glyph name="equal" format="1">
  <advance width="641"/>
  <unicode hex="003D"/>
  <outline>
    <contour>
      <point x="571" y="246" type="line"/>
      <point x="571" y="281" type="line"/>
      <point x="70" y="281" type="line"/>
      <point x="70" y="246" type="line"/>
    </contour>
    <contour>
      <point x="571" y="386" type="line"/>
      <point x="571" y="420" type="line"/>
      <point x="70" y="420" type="line"/>
      <point x="70" y="386" type="line"/>
    </contour>
  </outline>
</glyph>
<glyph name="greater" format="1">
  <advance width="441"/>
  <unicode hex="003E"/>
  <outline>
    <contour>
      <point x="395" y="322" type="line"/>
      <point x="395" y="345" type="line"/>
      <point x="56" y="526" type="line"/>
      <point x="56" y="487" type="line"/>
      <point x="335" y="334" type="line"/>
      <point x="56" y="179" type="line"/>
      <point x="56" y="141" type="line"/>
    </contour>
  </outline>
</glyph>
<glyph name="at" format="1">
  <advance width="659"/>
  <unicode hex="0040"/>
  <outline>
    <contour>
      <point x="626" y="392" type="qcurve" smooth="yes"/>
      <point x="626" y="538"/>
      <point x="541" y="635" type="qcurve"/>
      <point x="467" y="715"/>
      <point x="358" y="715" type="qcurve" smooth="yes"/>
      <point x="192" y="715"/>
      <point x="97" y="545" type="qcurve" smooth="yes"/>
      <point x="31" y="428"/>
      <point x="31" y="271" type="qcurve" smooth="yes"/>
      <point x="31" y="84"/>
      <point x="130" y="-25" type="qcurve"/>
      <point x="208" y="-113"/>
      <point x="335" y="-113" type="qcurve" smooth="yes"/>
      <point x="454" y="-113"/>
      <point x="548" y="-8" type="qcurve"/>
      <point x="540" y="11" type="line"/>
      <point x="443" y="-83"/>
      <point x="331" y="-83" type="qcurve" smooth="yes"/>
      <point x="198" y="-83"/>
      <point x="125" y="29" type="qcurve"/>
      <point x="63" y="121"/>
      <point x="63" y="264" type="qcurve" smooth="yes"/>
      <point x="63" y="470"/>
      <point x="170" y="594" type="qcurve"/>
      <point x="246" y="684"/>
      <point x="356" y="684" type="qcurve" smooth="yes"/>
      <point x="471" y="684"/>
      <point x="537" y="595" type="qcurve"/>
      <point x="596" y="512"/>
      <point x="596" y="394" type="qcurve" smooth="yes"/>
      <point x="596" y="210"/>
      <point x="540" y="124" type="qcurve"/>
      <point x="499" y="65"/>
      <point x="452" y="65" type="qcurve" smooth="yes"/>
      <point x="412" y="65"/>
      <point x="412" y="109" type="qcurve"/>
      <point x="451" y="430" type="line" smooth="yes"/>
      <point x="452" y="435"/>
      <point x="452" y="444" type="qcurve"/>
      <point x="453" y="449"/>
      <point x="453" y="457" type="qcurve" smooth="yes"/>
      <point x="453" y="552"/>
      <point x="361" y="552" type="qcurve" smooth="yes"/>
      <point x="257" y="552"/>
      <point x="245" y="430" type="qcurve"/>
      <point x="243" y="422" type="line"/>
      <point x="276" y="422" type="line"/>
      <point x="283" y="475"/>
      <point x="302" y="500" type="qcurve"/>
      <point x="323" y="525"/>
      <point x="357" y="525" type="qcurve" smooth="yes"/>
      <point x="429" y="525"/>
      <point x="417" y="432" type="qcurve"/>
      <point x="410" y="362" type="line"/>
      <point x="388" y="382"/>
      <point x="342" y="382" type="qcurve" smooth="yes"/>
      <point x="237" y="382"/>
      <point x="225" y="261" type="qcurve" smooth="yes"/>
      <point x="223" y="248"/>
      <point x="220" y="218"/>
      <point x="220" y="216" type="qcurve" smooth="yes"/>
      <point x="220" y="197" type="line" smooth="yes"/>
      <point x="220" y="105"/>
      <point x="310" y="105" type="qcurve" smooth="yes"/>
      <point x="356" y="105"/>
      <point x="381" y="124" type="qcurve"/>
      <point x="382" y="97" type="line" smooth="yes"/>
      <point x="384" y="32"/>
      <point x="446" y="32" type="qcurve" smooth="yes"/>
      <point x="500" y="32"/>
      <point x="546" y="86" type="qcurve"/>
      <point x="585" y="130"/>
      <point x="606" y="221" type="qcurve"/>
      <point x="616" y="259"/>
      <point x="622" y="306" type="qcurve"/>
      <point x="626" y="362"/>
    </contour>
    <contour>
      <point x="400" y="290" type="qcurve"/>
      <point x="390" y="196" type="line"/>
      <point x="375" y="130"/>
      <point x="313" y="130" type="qcurve" smooth="yes"/>
      <point x="300" y="130"/>
      <point x="292" y="134" type="qcurve"/>
      <point x="281" y="138"/>
      <point x="272" y="144" type="qcurve" smooth="yes"/>
      <point x="262" y="151"/>
      <point x="258" y="158" type="qcurve"/>
      <point x="252" y="164"/>
      <point x="252" y="173" type="qcurve" smooth="yes"/>
      <point x="258" y="262" type="line" smooth="yes"/>
      <point x="261" y="311"/>
      <point x="282" y="333" type="qcurve" smooth="yes"/>
      <point x="303" y="356"/>
      <point x="338" y="356" type="qcurve" smooth="yes"/>
      <point x="400" y="356"/>
    </contour>
  </outline>
</glyph>
<glyph name="E" format="1">
  <advance width="257"/>
  <unicode hex="0045"/>
  <outline>
    <contour>
      <point x="242" y="0" type="line"/>
      <point x="242" y="26" type="line"/>
      <point x="72" y="26" type="line"/>
      <point x="72" y="451" type="line"/>
      <point x="242" y="451" type="line"/>
      <point x="242" y="476" type="line"/>
      <point x="72" y="476" type="line"/>
      <point x="72" y="777" type="line"/>
      <point x="242" y="777" type="line"/>
      <point x="242" y="804" type="line"/>
      <point x="38" y="804" type="line"/>
      <point x="38" y="0" type="line"/>
    </contour>
  </outline>
</glyph>
<glyph name="F" format="1">
  <advance width="250"/>
  <unicode hex="0046"/>
  <outline>
    <contour>
      <point x="247" y="776" type="line"/>
      <point x="247" y="804" type="line"/>
      <point x="43" y="804" type="line"/>
      <point x="43" y="0" type="line"/>
      <point x="77" y="0" type="line"/>
      <point x="77" y="452" type="line"/>
      <point x="224" y="452" type="line"/>
      <point x="224" y="479" type="line"/>
      <point x="77" y="479" type="line"/>
      <point x="77" y="776" type="line"/>
    </contour>
  </outline>
</glyph>
<glyph name="G" format="1">
  <advance width="285"/>
  <unicode hex="0047"/>
  <outline>
    <contour>
      <point x="246" y="114" type="qcurve" smooth="yes"/>
      <point x="246" y="479" type="line"/>
      <point x="156" y="479" type="line"/>
      <point x="156" y="447" type="line"/>
      <point x="212" y="447" type="line"/>
      <point x="212" y="112" type="line" smooth="yes"/>
      <point x="212" y="17"/>
      <point x="72" y="17"/>
      <point x="72" y="112" type="qcurve" smooth="yes"/>
      <point x="72" y="692" type="line" smooth="yes"/>
      <point x="72" y="785"/>
      <point x="212" y="785"/>
      <point x="212" y="692" type="qcurve" smooth="yes"/>
      <point x="212" y="632" type="line"/>
      <point x="246" y="632" type="line"/>
      <point x="246" y="690" type="line" smooth="yes"/>
      <point x="246" y="811"/>
      <point x="142" y="811" type="qcurve" smooth="yes"/>
      <point x="39" y="811"/>
      <point x="39" y="690" type="qcurve" smooth="yes"/>
      <point x="39" y="114" type="line" smooth="yes"/>
      <point x="39" y="-8"/>
      <point x="142" y="-8" type="qcurve" smooth="yes"/>
      <point x="246" y="-8"/>
    </contour>
  </outline>
</glyph>
<glyph name="H" format="1">
  <advance width="281"/>
  <unicode hex="0048"/>
  <outline>
    <contour>
      <point x="248" y="0" type="line"/>
      <point x="248" y="804" type="line"/>
      <point x="216" y="804" type="line"/>
      <point x="216" y="476" type="line"/>
      <point x="76" y="476" type="line"/>
      <point x="76" y="804" type="line"/>
      <point x="42" y="804" type="line"/>
      <point x="42" y="0" type="line"/>
      <point x="76" y="0" type="line"/>
      <point x="76" y="451" type="line"/>
      <point x="216" y="451" type="line"/>
      <point x="216" y="0" type="line"/>
    </contour>
  </outline>
</glyph>
<glyph name="I" format="1">
  <advance width="111"/>
  <unicode hex="0049"/>
  <outline>
    <contour>
      <point x="95" y="1" type="line"/>
      <point x="95" y="32" type="line"/>
      <point x="73" y="32" type="line"/>
      <point x="73" y="771" type="line"/>
      <point x="95" y="771" type="line"/>
      <point x="95" y="802" type="line"/>
      <point x="19" y="802" type="line"/>
      <point x="19" y="771" type="line"/>
      <point x="40" y="771" type="line"/>
      <point x="40" y="32" type="line"/>
      <point x="19" y="32" type="line"/>
      <point x="19" y="1" type="line"/>
    </contour>
  </outline>
</glyph>
<glyph name="J" format="1">
  <advance width="265"/>
  <unicode hex="004A"/>
  <outline>
    <contour>
      <point x="226" y="114" type="qcurve" smooth="yes"/>
      <point x="226" y="804" type="line"/>
      <point x="192" y="804" type="line"/>
      <point x="192" y="112" type="line" smooth="yes"/>
      <point x="192" y="17"/>
      <point x="122" y="17" type="qcurve" smooth="yes"/>
      <point x="80" y="17"/>
      <point x="64" y="45" type="qcurve" smooth="yes"/>
      <point x="52" y="66"/>
      <point x="52" y="112" type="qcurve" smooth="yes"/>
      <point x="52" y="176" type="line"/>
      <point x="17" y="176" type="line"/>
      <point x="17" y="114" type="line" smooth="yes"/>
      <point x="17" y="-8"/>
      <point x="122" y="-8" type="qcurve" smooth="yes"/>
      <point x="226" y="-8"/>
    </contour>
  </outline>
</glyph>
<glyph name="Q" format="1">
  <advance width="285"/>
  <unicode hex="0051"/>
  <outline>
    <contour>
      <point x="246" y="114" type="qcurve" smooth="yes"/>
      <point x="246" y="690" type="line" smooth="yes"/>
      <point x="246" y="811"/>
      <point x="142" y="811" type="qcurve" smooth="yes"/>
      <point x="39" y="811"/>
      <point x="39" y="690" type="qcurve" smooth="yes"/>
      <point x="39" y="114" type="line" smooth="yes"/>
      <point x="39" y="-2"/>
      <point x="131" y="-8" type="qcurve"/>
      <point x="131" y="-59" type="line" smooth="yes"/>
      <point x="131" y="-180"/>
      <point x="235" y="-180" type="qcurve"/>
      <point x="235" y="-154" type="line"/>
      <point x="165" y="-154"/>
      <point x="165" y="-61" type="qcurve" smooth="yes"/>
      <point x="165" y="-6" type="line"/>
      <point x="246" y="4"/>
    </contour>
    <contour>
      <point x="212" y="112" type="line" smooth="yes"/>
      <point x="212" y="31"/>
      <point x="165" y="20" type="qcurve"/>
      <point x="165" y="364" type="line" smooth="yes"/>
      <point x="165" y="479"/>
      <point x="72" y="485" type="qcurve"/>
      <point x="72" y="692" type="line" smooth="yes"/>
      <point x="72" y="785"/>
      <point x="212" y="785"/>
      <point x="212" y="692" type="qcurve" smooth="yes"/>
    </contour>
    <contour>
      <point x="131" y="19" type="line"/>
      <point x="72" y="24"/>
      <point x="72" y="112" type="qcurve" smooth="yes"/>
      <point x="72" y="459" type="line"/>
      <point x="131" y="453"/>
      <point x="131" y="366" type="qcurve" smooth="yes"/>
    </contour>
  </outline>
</glyph>
<glyph name="R" format="1">
  <advance width="298"/>
  <unicode hex="0052"/>
  <outline>
    <contour>
      <point x="250" y="0" type="line"/>
      <point x="250" y="356" type="line" smooth="yes"/>
      <point x="250" y="439"/>
      <point x="193" y="460" type="qcurve"/>
      <point x="250" y="476"/>
      <point x="250" y="557" type="qcurve" smooth="yes"/>
      <point x="250" y="679" type="line" smooth="yes"/>
      <point x="250" y="746"/>
      <point x="233" y="772" type="qcurve"/>
      <point x="210" y="804"/>
      <point x="145" y="804" type="qcurve" smooth="yes"/>
      <point x="44" y="804" type="line"/>
      <point x="44" y="0" type="line"/>
      <point x="78" y="0" type="line"/>
      <point x="78" y="441" type="line"/>
      <point x="136" y="441" type="line" smooth="yes"/>
      <point x="182" y="441"/>
      <point x="201" y="419" type="qcurve"/>
      <point x="218" y="402"/>
      <point x="218" y="352" type="qcurve" smooth="yes"/>
      <point x="218" y="0" type="line"/>
    </contour>
    <contour>
      <point x="218" y="560" type="line" smooth="yes"/>
      <point x="218" y="510"/>
      <point x="203" y="492" type="qcurve" smooth="yes"/>
      <point x="185" y="472"/>
      <point x="136" y="472" type="qcurve" smooth="yes"/>
      <point x="78" y="472" type="line"/>
      <point x="78" y="776" type="line"/>
      <point x="136" y="776" type="line" smooth="yes"/>
      <point x="185" y="776"/>
      <point x="203" y="757" type="qcurve" smooth="yes"/>
      <point x="218" y="740"/>
      <point x="218" y="690" type="qcurve" smooth="yes"/>
    </contour>
  </outline>
</glyph>
<glyph name="X" format="1">
  <advance width="280"/>
  <unicode hex="0058"/>
  <outline>
    <contour>
      <point x="270" y="0" type="line"/>
      <point x="157" y="404" type="line"/>
      <point x="270" y="804" type="line"/>
      <point x="236" y="804" type="line"/>
      <point x="140" y="460" type="line"/>
      <point x="47" y="804" type="line"/>
      <point x="10" y="804" type="line"/>
      <point x="122" y="411" type="line"/>
      <point x="10" y="0" type="line"/>
      <point x="44" y="0" type="line"/>
      <point x="139" y="349" type="line"/>
      <point x="232" y="0" type="line"/>
    </contour>
  </outline>
</glyph>
<glyph name="Y" format="1">
  <advance width="267"/>
  <unicode hex="0059"/>
  <outline>
    <contour>
      <point x="265" y="804" type="line"/>
      <point x="231" y="804" type="line"/>
      <point x="135" y="460" type="line"/>
      <point x="42" y="804" type="line"/>
      <point x="5" y="804" type="line"/>
      <point x="117" y="414" type="line"/>
      <point x="117" y="0" type="line"/>
      <point x="151" y="0" type="line"/>
      <point x="151" y="412" type="line"/>
    </contour>
  </outline>
</glyph>
<glyph name="bracketleft" format="1">
  <advance width="150"/>
  <unicode hex="005B"/>
  <outline>
    <contour>
      <point x="140" y="-224" type="line"/>
      <point x="140" y="-199" type="line"/>
      <point x="75" y="-199" type="line"/>
      <point x="75" y="831" type="line"/>
      <point x="140" y="831" type="line"/>
      <point x="140" y="857" type="line"/>
      <point x="41" y="857" type="line"/>
      <point x="41" y="-224" type="line"/>
    </contour>
  </outline>
</glyph>
<glyph name="bracketright" format="1">
  <advance width="150"/>
  <unicode hex="005D"/>
  <outline>
    <contour>
      <point x="140" y="-224" type="line"/>
      <point x="140" y="857" type="line"/>
      <point x="41" y="857" type="line"/>
      <point x="41" y="831" type="line"/>
      <point x="106" y="831" type="line"/>
      <point x="106" y="-199" type="line"/>
      <point x="41" y="-199" type="line"/>
      <point x="41" y="-224" type="line"/>
    </contour>
  </outline>
</glyph>
<glyph name="a" format="1">
  <advance width="285"/>
  <unicode hex="0061"/>
  <outline>
    <contour>
      <point x="246" y="683" type="line" smooth="yes"/>
      <point x="246" y="805"/>
      <point x="142" y="805" type="qcurve" smooth="yes"/>
      <point x="39" y="805"/>
      <point x="39" y="683" type="qcurve" smooth="yes"/>
      <point x="39" y="654" type="line"/>
      <point x="72" y="654" type="line"/>
      <point x="72" y="685" type="line" smooth="yes"/>
      <point x="72" y="779"/>
      <point x="212" y="779"/>
      <point x="212" y="685" type="qcurve" smooth="yes"/>
      <point x="212" y="473" type="line"/>
      <point x="189" y="493"/>
      <point x="142" y="493" type="qcurve" smooth="yes"/>
      <point x="39" y="493"/>
      <point x="39" y="372" type="qcurve" smooth="yes"/>
      <point x="39" y="114" type="line" smooth="yes"/>
      <point x="39" y="-8"/>
      <point x="142" y="-8" type="qcurve" smooth="yes"/>
      <point x="186" y="-8"/>
      <point x="211" y="11" type="qcurve"/>
      <point x="211" y="-4" type="line"/>
      <point x="245" y="-4" type="line"/>
    </contour>
    <contour>
      <point x="211" y="85" type="line"/>
      <point x="203" y="17"/>
      <point x="142" y="17" type="qcurve" smooth="yes"/>
      <point x="100" y="17"/>
      <point x="84" y="45" type="qcurve" smooth="yes"/>
      <point x="72" y="66"/>
      <point x="72" y="112" type="qcurve" smooth="yes"/>
      <point x="72" y="375" type="line" smooth="yes"/>
      <point x="72" y="467"/>
      <point x="142" y="467" type="qcurve" smooth="yes"/>
      <point x="203" y="467"/>
      <point x="211" y="402" type="qcurve"/>
    </contour>
  </outline>
</glyph>
<glyph name="c" format="1">
  <advance width="265"/>
  <unicode hex="0063"/>
  <outline>
    <contour>
      <point x="246" y="114" type="qcurve" smooth="yes"/>
      <point x="246" y="176" type="line"/>
      <point x="212" y="176" type="line"/>
      <point x="212" y="112" type="line" smooth="yes"/>
      <point x="212" y="17"/>
      <point x="72" y="17"/>
      <point x="72" y="112" type="qcurve" smooth="yes"/>
      <point x="72" y="692" type="line" smooth="yes"/>
      <point x="72" y="785"/>
      <point x="212" y="785"/>
      <point x="212" y="692" type="qcurve" smooth="yes"/>
      <point x="212" y="632" type="line"/>
      <point x="246" y="632" type="line"/>
      <point x="246" y="690" type="line" smooth="yes"/>
      <point x="246" y="811"/>
      <point x="142" y="811" type="qcurve" smooth="yes"/>
      <point x="39" y="811"/>
      <point x="39" y="690" type="qcurve" smooth="yes"/>
      <point x="39" y="114" type="line" smooth="yes"/>
      <point x="39" y="-8"/>
      <point x="142" y="-8" type="qcurve" smooth="yes"/>
      <point x="246" y="-8"/>
    </contour>
  </outline>
</glyph>
<glyph name="d" format="1">
  <advance width="285"/>
  <unicode hex="0064"/>
  <outline>
    <contour>
      <point x="246" y="-4" type="line"/>
      <point x="246" y="803" type="line"/>
      <point x="214" y="803" type="line"/>
      <point x="214" y="560" type="line"/>
      <point x="189" y="580"/>
      <point x="144" y="580" type="qcurve" smooth="yes"/>
      <point x="39" y="580"/>
      <point x="39" y="458" type="qcurve" smooth="yes"/>
      <point x="39" y="114" type="line" smooth="yes"/>
      <point x="39" y="-8"/>
      <point x="144" y="-8" type="qcurve" smooth="yes"/>
      <point x="188" y="-8"/>
      <point x="214" y="12" type="qcurve"/>
      <point x="214" y="-4" type="line"/>
    </contour>
    <contour>
      <point x="212" y="112" type="line" smooth="yes"/>
      <point x="212" y="17"/>
      <point x="144" y="17" type="qcurve" smooth="yes"/>
      <point x="72" y="17"/>
      <point x="72" y="112" type="qcurve" smooth="yes"/>
      <point x="72" y="460" type="line" smooth="yes"/>
      <point x="72" y="554"/>
      <point x="144" y="554" type="qcurve" smooth="yes"/>
      <point x="212" y="554"/>
      <point x="212" y="460" type="qcurve" smooth="yes"/>
    </contour>
  </outline>
</glyph>
<glyph name="f" format="1">
  <advance width="254"/>
  <unicode hex="0066"/>
  <outline>
    <contour>
      <point x="253" y="664" type="line"/>
      <point x="253" y="681" type="line" smooth="yes"/>
      <point x="253" y="804"/>
      <point x="148" y="804" type="qcurve" smooth="yes"/>
      <point x="44" y="804"/>
      <point x="44" y="681" type="qcurve" smooth="yes"/>
      <point x="44" y="-1" type="line"/>
      <point x="78" y="-1" type="line"/>
      <point x="78" y="540" type="line"/>
      <point x="214" y="540" type="line"/>
      <point x="214" y="570" type="line"/>
      <point x="78" y="570" type="line"/>
      <point x="78" y="684" type="line" smooth="yes"/>
      <point x="78" y="777"/>
      <point x="148" y="777" type="qcurve" smooth="yes"/>
      <point x="190" y="777"/>
      <point x="207" y="750" type="qcurve"/>
      <point x="218" y="726"/>
      <point x="218" y="684" type="qcurve" smooth="yes"/>
      <point x="218" y="664" type="line"/>
    </contour>
  </outline>
</glyph>
<glyph name="g" format="1">
  <advance width="285"/>
  <unicode hex="0067"/>
  <outline>
    <contour>
      <point x="247" y="121" type="qcurve" smooth="yes"/>
      <point x="247" y="803" type="line"/>
      <point x="214" y="803" type="line"/>
      <point x="214" y="784" type="line"/>
      <point x="188" y="805"/>
      <point x="142" y="805" type="qcurve" smooth="yes"/>
      <point x="39" y="805"/>
      <point x="39" y="683" type="qcurve" smooth="yes"/>
      <point x="39" y="403" type="line" smooth="yes"/>
      <point x="39" y="281"/>
      <point x="142" y="281" type="qcurve" smooth="yes"/>
      <point x="188" y="281"/>
      <point x="214" y="301" type="qcurve"/>
      <point x="214" y="118" type="line" smooth="yes"/>
      <point x="214" y="25"/>
      <point x="144" y="25" type="qcurve" smooth="yes"/>
      <point x="102" y="25"/>
      <point x="85" y="52" type="qcurve"/>
      <point x="74" y="72"/>
      <point x="74" y="118" type="qcurve" smooth="yes"/>
      <point x="74" y="183" type="line"/>
      <point x="39" y="183" type="line"/>
      <point x="39" y="121" type="line" smooth="yes"/>
      <point x="39" y="0"/>
      <point x="144" y="0" type="qcurve" smooth="yes"/>
      <point x="247" y="0"/>
    </contour>
    <contour>
      <point x="212" y="401" type="line" smooth="yes"/>
      <point x="212" y="306"/>
      <point x="72" y="306"/>
      <point x="72" y="401" type="qcurve" smooth="yes"/>
      <point x="72" y="685" type="line" smooth="yes"/>
      <point x="72" y="779"/>
      <point x="212" y="779"/>
      <point x="212" y="685" type="qcurve" smooth="yes"/>
    </contour>
  </outline>
</glyph>
<glyph name="i" format="1">
  <advance width="116"/>
  <unicode hex="0069"/>
  <outline>
    <contour>
      <point x="75" y="0" type="line"/>
      <point x="75" y="681" type="line"/>
      <point x="41" y="681" type="line"/>
      <point x="41" y="0" type="line"/>
    </contour>
    <contour>
      <point x="75" y="771" type="line"/>
      <point x="75" y="803" type="line"/>
      <point x="41" y="803" type="line"/>
      <point x="41" y="771" type="line"/>
    </contour>
  </outline>
</glyph>
<glyph name="j" format="1">
  <advance width="104"/>
  <unicode hex="006A"/>
  <outline>
    <contour>
      <point x="68" y="121" type="qcurve" smooth="yes"/>
      <point x="68" y="676" type="line"/>
      <point x="36" y="676" type="line"/>
      <point x="36" y="118" type="line" smooth="yes"/>
      <point x="36" y="25"/>
      <point x="-35" y="25" type="qcurve"/>
      <point x="-35" y="0" type="line"/>
      <point x="68" y="0"/>
    </contour>
    <contour>
      <point x="71" y="772" type="line"/>
      <point x="71" y="804" type="line"/>
      <point x="38" y="804" type="line"/>
      <point x="38" y="772" type="line"/>
    </contour>
  </outline>
</glyph>
<glyph name="k" format="1">
  <advance width="295"/>
  <unicode hex="006B"/>
  <outline>
    <contour>
      <point x="250" y="0" type="line"/>
      <point x="250" y="366" type="line" smooth="yes"/>
      <point x="250" y="446"/>
      <point x="193" y="464" type="qcurve"/>
      <point x="250" y="483"/>
      <point x="250" y="561" type="qcurve" smooth="yes"/>
      <point x="250" y="804" type="line"/>
      <point x="218" y="804" type="line"/>
      <point x="218" y="565" type="line" smooth="yes"/>
      <point x="218" y="512"/>
      <point x="203" y="496" type="qcurve"/>
      <point x="186" y="476"/>
      <point x="136" y="476" type="qcurve" smooth="yes"/>
      <point x="78" y="476" type="line"/>
      <point x="78" y="804" type="line"/>
      <point x="44" y="804" type="line"/>
      <point x="44" y="0" type="line"/>
      <point x="78" y="0" type="line"/>
      <point x="78" y="451" type="line"/>
      <point x="136" y="451" type="line" smooth="yes"/>
      <point x="186" y="451"/>
      <point x="203" y="431" type="qcurve"/>
      <point x="218" y="415"/>
      <point x="218" y="364" type="qcurve" smooth="yes"/>
      <point x="218" y="0" type="line"/>
    </contour>
  </outline>
</glyph>
<glyph name="m" format="1">
  <advance width="452"/>
  <unicode hex="006D"/>
  <outline>
    <contour>
      <point x="421" y="-8" type="line"/>
      <point x="421" y="681" type="line" smooth="yes"/>
      <point x="421" y="803"/>
      <point x="317" y="803" type="qcurve" smooth="yes"/>
      <point x="252" y="803"/>
      <point x="230" y="761" type="qcurve"/>
      <point x="206" y="803"/>
      <point x="142" y="803" type="qcurve" smooth="yes"/>
      <point x="96" y="803"/>
      <point x="70" y="780" type="qcurve"/>
      <point x="70" y="803" type="line"/>
      <point x="36" y="803" type="line"/>
      <point x="36" y="-8" type="line"/>
      <point x="72" y="-8" type="line"/>
      <point x="72" y="683" type="line" smooth="yes"/>
      <point x="72" y="778"/>
      <point x="212" y="778"/>
      <point x="212" y="683" type="qcurve" smooth="yes"/>
      <point x="212" y="-8" type="line"/>
      <point x="247" y="-8" type="line"/>
      <point x="247" y="683" type="line" smooth="yes"/>
      <point x="247" y="778"/>
      <point x="387" y="778"/>
      <point x="387" y="683" type="qcurve" smooth="yes"/>
      <point x="387" y="-8" type="line"/>
    </contour>
  </outline>
</glyph>
<glyph name="n" format="1">
  <advance width="279"/>
  <unicode hex="006E"/>
  <outline>
    <contour>
      <point x="246" y="-8" type="line"/>
      <point x="246" y="681" type="line" smooth="yes"/>
      <point x="246" y="803"/>
      <point x="142" y="803" type="qcurve" smooth="yes"/>
      <point x="96" y="803"/>
      <point x="70" y="780" type="qcurve"/>
      <point x="70" y="803" type="line"/>
      <point x="36" y="803" type="line"/>
      <point x="36" y="-8" type="line"/>
      <point x="72" y="-8" type="line"/>
      <point x="72" y="683" type="line" smooth="yes"/>
      <point x="72" y="778"/>
      <point x="212" y="778"/>
      <point x="212" y="683" type="qcurve" smooth="yes"/>
      <point x="212" y="-8" type="line"/>
    </contour>
  </outline>
</glyph>
<glyph name="q" format="1">
  <advance width="275"/>
  <unicode hex="0071"/>
  <outline>
    <contour>
      <point x="241" y="-5" type="line"/>
      <point x="241" y="804" type="line"/>
      <point x="207" y="804" type="line"/>
      <point x="207" y="788" type="line"/>
      <point x="184" y="808"/>
      <point x="137" y="808" type="qcurve" smooth="yes"/>
      <point x="34" y="808"/>
      <point x="34" y="687" type="qcurve" smooth="yes"/>
      <point x="34" y="340" type="line" smooth="yes"/>
      <point x="34" y="217"/>
      <point x="137" y="217" type="qcurve" smooth="yes"/>
      <point x="184" y="217"/>
      <point x="207" y="237" type="qcurve"/>
      <point x="207" y="-5" type="line"/>
    </contour>
    <contour>
      <point x="207" y="337" type="line" smooth="yes"/>
      <point x="207" y="243"/>
      <point x="67" y="243"/>
      <point x="67" y="337" type="qcurve" smooth="yes"/>
      <point x="67" y="688" type="line" smooth="yes"/>
      <point x="67" y="783"/>
      <point x="207" y="783"/>
      <point x="207" y="688" type="qcurve" smooth="yes"/>
    </contour>
  </outline>
</glyph>
<glyph name="r" format="1">
  <advance width="259"/>
  <unicode hex="0072"/>
  <outline>
    <contour>
      <point x="247" y="576" type="line"/>
      <point x="247" y="675" type="line" smooth="yes"/>
      <point x="247" y="733"/>
      <point x="228" y="768" type="qcurve"/>
      <point x="206" y="799"/>
      <point x="155" y="799" type="qcurve" smooth="yes"/>
      <point x="137" y="799"/>
      <point x="110" y="794" type="qcurve"/>
      <point x="87" y="788"/>
      <point x="75" y="779" type="qcurve"/>
      <point x="75" y="803" type="line"/>
      <point x="39" y="803" type="line"/>
      <point x="39" y="-3" type="line"/>
      <point x="74" y="-3" type="line"/>
      <point x="74" y="294" type="line"/>
      <point x="74" y="517" type="line"/>
      <point x="74" y="660" type="line"/>
      <point x="75" y="693"/>
      <point x="75" y="713" type="qcurve"/>
      <point x="88" y="771"/>
      <point x="142" y="771" type="qcurve" smooth="yes"/>
      <point x="186" y="771"/>
      <point x="200" y="746" type="qcurve"/>
      <point x="212" y="719"/>
      <point x="212" y="678" type="qcurve" smooth="yes"/>
      <point x="212" y="576" type="line"/>
    </contour>
  </outline>
</glyph>
<glyph name="s" format="1">
  <advance width="267"/>
  <unicode hex="0073"/>
  <outline>
    <contour>
      <point x="236" y="382" type="line"/>
      <point x="235" y="382" type="line"/>
      <point x="226" y="471"/>
      <point x="134" y="471" type="qcurve" smooth="yes"/>
      <point x="64" y="471"/>
      <point x="64" y="566" type="qcurve" smooth="yes"/>
      <point x="64" y="692" type="line" smooth="yes"/>
      <point x="64" y="786"/>
      <point x="204" y="786"/>
      <point x="204" y="692" type="qcurve" smooth="yes"/>
      <point x="204" y="627" type="line"/>
      <point x="236" y="627" type="line"/>
      <point x="236" y="690" type="line" smooth="yes"/>
      <point x="236" y="811"/>
      <point x="134" y="811" type="qcurve" smooth="yes"/>
      <point x="29" y="811"/>
      <point x="29" y="690" type="qcurve" smooth="yes"/>
      <point x="29" y="569" type="line" smooth="yes"/>
      <point x="29" y="446"/>
      <point x="134" y="446" type="qcurve" smooth="yes"/>
      <point x="204" y="446"/>
      <point x="204" y="371" type="qcurve" smooth="yes"/>
      <point x="204" y="112" type="line" smooth="yes"/>
      <point x="204" y="19"/>
      <point x="64" y="19"/>
      <point x="64" y="112" type="qcurve" smooth="yes"/>
      <point x="64" y="171" type="line"/>
      <point x="29" y="171" type="line"/>
      <point x="29" y="114" type="line" smooth="yes"/>
      <point x="29" y="-8"/>
      <point x="134" y="-8" type="qcurve" smooth="yes"/>
      <point x="236" y="-8"/>
      <point x="236" y="114" type="qcurve" smooth="yes"/>
    </contour>
  </outline>
</glyph>
<glyph name="t" format="1">
  <advance width="190"/>
  <unicode hex="0074"/>
  <outline>
    <contour>
      <point x="186" y="574" type="line"/>
      <point x="186" y="604" type="line"/>
      <point x="75" y="604" type="line"/>
      <point x="75" y="803" type="line"/>
      <point x="41" y="803" type="line"/>
      <point x="41" y="0" type="line"/>
      <point x="75" y="0" type="line"/>
      <point x="75" y="574" type="line"/>
    </contour>
  </outline>
</glyph>
<glyph name="u" format="1">
  <advance width="285"/>
  <unicode hex="0075"/>
  <outline>
    <contour>
      <point x="246" y="114" type="qcurve" smooth="yes"/>
      <point x="246" y="804" type="line"/>
      <point x="212" y="804" type="line"/>
      <point x="212" y="112" type="line" smooth="yes"/>
      <point x="212" y="17"/>
      <point x="72" y="17"/>
      <point x="72" y="112" type="qcurve" smooth="yes"/>
      <point x="72" y="804" type="line"/>
      <point x="39" y="804" type="line"/>
      <point x="39" y="114" type="line" smooth="yes"/>
      <point x="39" y="-8"/>
      <point x="142" y="-8" type="qcurve" smooth="yes"/>
      <point x="246" y="-8"/>
    </contour>
  </outline>
</glyph>
<glyph name="v" format="1">
  <advance width="280"/>
  <unicode hex="0076"/>
  <outline>
    <contour>
      <point x="270" y="804" type="line"/>
      <point x="236" y="804" type="line"/>
      <point x="140" y="130" type="line"/>
      <point x="44" y="804" type="line"/>
      <point x="10" y="804" type="line"/>
      <point x="126" y="0" type="line"/>
      <point x="154" y="0" type="line"/>
    </contour>
  </outline>
</glyph>
<glyph name="y" format="1">
  <advance width="285"/>
  <unicode hex="0079"/>
  <outline>
    <contour>
      <point x="247" y="116" type="qcurve" smooth="yes"/>
      <point x="247" y="799" type="line"/>
      <point x="246" y="799" type="line"/>
      <point x="246" y="804" type="line"/>
      <point x="212" y="804" type="line"/>
      <point x="212" y="357" type="line" smooth="yes"/>
      <point x="212" y="262"/>
      <point x="72" y="262"/>
      <point x="72" y="357" type="qcurve" smooth="yes"/>
      <point x="72" y="804" type="line"/>
      <point x="39" y="804" type="line"/>
      <point x="39" y="359" type="line" smooth="yes"/>
      <point x="39" y="237"/>
      <point x="142" y="237" type="qcurve" smooth="yes"/>
      <point x="188" y="237"/>
      <point x="214" y="257" type="qcurve"/>
      <point x="214" y="113" type="line" smooth="yes"/>
      <point x="214" y="20"/>
      <point x="144" y="20" type="qcurve" smooth="yes"/>
      <point x="102" y="20"/>
      <point x="85" y="47" type="qcurve"/>
      <point x="74" y="67"/>
      <point x="74" y="113" type="qcurve" smooth="yes"/>
      <point x="74" y="178" type="line"/>
      <point x="39" y="178" type="line"/>
      <point x="39" y="116" type="line" smooth="yes"/>
      <point x="39" y="-5"/>
      <point x="144" y="-5" type="qcurve" smooth="yes"/>
      <point x="247" y="-5"/>
    </contour>
  </outline>
</glyph>
<glyph name="z" format="1">
  <advance width="262"/>
  <unicode hex="007A"/>
  <outline>
    <contour>
      <point x="244" y="804" type="line"/>
      <point x="23" y="804" type="line"/>
      <point x="23" y="776" type="line"/>
      <point x="203" y="776" type="line"/>
      <point x="19" y="0" type="line"/>
      <point x="241" y="0" type="line"/>
      <point x="241" y="26" type="line"/>
      <point x="61" y="26" type="line"/>
    </contour>
  </outline>
</glyph>
<glyph name="braceleft" format="1">
  <advance width="270"/>
  <unicode hex="007B"/>
  <outline>
    <contour>
      <point x="235" y="-231" type="qcurve"/>
      <point x="235" y="-206" type="line"/>
      <point x="194" y="-205"/>
      <point x="177" y="-179" type="qcurve"/>
      <point x="165" y="-153"/>
      <point x="166" y="-113" type="qcurve" smooth="yes"/>
      <point x="187" y="327" type="line"/>
      <point x="104" y="355" type="line"/>
      <point x="187" y="384" type="line"/>
      <point x="166" y="746" type="line"/>
      <point x="165" y="789"/>
      <point x="177" y="812" type="qcurve"/>
      <point x="191" y="835"/>
      <point x="235" y="840" type="qcurve"/>
      <point x="235" y="866" type="line"/>
      <point x="179" y="863"/>
      <point x="154" y="832" type="qcurve" smooth="yes"/>
      <point x="140" y="815"/>
      <point x="136" y="794" type="qcurve" smooth="yes"/>
      <point x="131" y="769"/>
      <point x="132" y="745" type="qcurve" smooth="yes"/>
      <point x="155" y="407" type="line"/>
      <point x="34" y="369" type="line"/>
      <point x="34" y="341" type="line"/>
      <point x="155" y="304" type="line"/>
      <point x="132" y="-110" type="line"/>
      <point x="130" y="-167"/>
      <point x="154" y="-198" type="qcurve" smooth="yes"/>
      <point x="178" y="-230"/>
    </contour>
  </outline>
</glyph>
<glyph name="bar" format="1">
  <advance width="560"/>
  <unicode hex="007C"/>
  <outline>
    <contour>
      <point x="300" y="-264" type="line"/>
      <point x="300" y="855" type="line"/>
      <point x="260" y="855" type="line"/>
      <point x="260" y="-264" type="line"/>
    </contour>
  </outline>
</glyph>
<glyph name="asciitilde" format="1">
  <advance width="491"/>
  <unicode hex="007E"/>
  <outline>
    <contour>
      <point x="460" y="422" type="line"/>
      <point x="377" y="358"/>
      <point x="331" y="364" type="qcurve"/>
      <point x="300" y="367"/>
      <point x="246" y="406" type="qcurve" smooth="yes"/>
      <point x="188" y="449"/>
      <point x="151" y="449" type="qcurve"/>
      <point x="100" y="446"/>
      <point x="35" y="396" type="qcurve"/>
      <point x="30" y="356" type="line"/>
      <point x="114" y="422"/>
      <point x="160" y="416" type="qcurve" smooth="yes"/>
      <point x="171" y="415"/>
      <point x="190" y="405" type="qcurve" smooth="yes"/>
      <point x="212" y="394"/>
      <point x="231" y="380" type="qcurve"/>
      <point x="261" y="360"/>
      <point x="292" y="344" type="qcurve"/>
      <point x="319" y="332"/>
      <point x="339" y="332" type="qcurve" smooth="yes"/>
      <point x="388" y="332"/>
      <point x="455" y="384" type="qcurve"/>
    </contour>
  </outline>
</glyph>
<glyph name="exclamdown" format="1">
  <advance width="142"/>
  <unicode hex="00A1"/>
  <outline>
    <contour>
      <point x="89" y="-188" type="line"/>
      <point x="89" y="496" type="line"/>
      <point x="55" y="496" type="line"/>
      <point x="55" y="-188" type="line"/>
    </contour>
    <contour>
      <point x="87" y="580" type="line"/>
      <point x="87" y="617" type="line"/>
      <point x="56" y="617" type="line"/>
      <point x="56" y="580" type="line"/>
    </contour>
  </outline>
</glyph>
<glyph name="currency" format="1">
  <advance width="295"/>
  <unicode hex="00A4"/>
  <outline>
    <contour>
      <point x="271" y="114" type="qcurve" smooth="yes"/>
      <point x="271" y="176" type="line"/>
      <point x="237" y="176" type="line"/>
      <point x="237" y="112" type="line" smooth="yes"/>
      <point x="237" y="17"/>
      <point x="97" y="17"/>
      <point x="97" y="112" type="qcurve" smooth="yes"/>
      <point x="97" y="341" type="line"/>
      <point x="210" y="341" type="line"/>
      <point x="210" y="376" type="line"/>
      <point x="97" y="376" type="line"/>
      <point x="97" y="480" type="line"/>
      <point x="237" y="480" type="line"/>
      <point x="237" y="515" type="line"/>
      <point x="97" y="515" type="line"/>
      <point x="97" y="692" type="line" smooth="yes"/>
      <point x="97" y="785"/>
      <point x="237" y="785"/>
      <point x="237" y="692" type="qcurve" smooth="yes"/>
      <point x="237" y="632" type="line"/>
      <point x="271" y="632" type="line"/>
      <point x="271" y="690" type="line" smooth="yes"/>
      <point x="271" y="811"/>
      <point x="63" y="811"/>
      <point x="63" y="690" type="qcurve" smooth="yes"/>
      <point x="63" y="515" type="line"/>
      <point x="31" y="515" type="line"/>
      <point x="31" y="480" type="line"/>
      <point x="63" y="480" type="line"/>
      <point x="63" y="376" type="line"/>
      <point x="3" y="376" type="line"/>
      <point x="3" y="341" type="line"/>
      <point x="63" y="341" type="line"/>
      <point x="63" y="114" type="line" smooth="yes"/>
      <point x="63" y="-8"/>
      <point x="271" y="-8"/>
    </contour>
  </outline>
</glyph>
<glyph name="copyright" format="1">
  <advance width="932"/>
  <unicode hex="00A9"/>
  <outline>
    <contour>
      <point x="782" y="392" type="qcurve" smooth="yes"/>
      <point x="782" y="757"/>
      <point x="466" y="757" type="qcurve" smooth="yes"/>
      <point x="306" y="757"/>
      <point x="225" y="657" type="qcurve"/>
      <point x="150" y="566"/>
      <point x="150" y="392" type="qcurve" smooth="yes"/>
      <point x="150" y="220"/>
      <point x="226" y="129" type="qcurve"/>
      <point x="307" y="27"/>
      <point x="466" y="27" type="qcurve" smooth="yes"/>
      <point x="624" y="27"/>
      <point x="706" y="127" type="qcurve" smooth="yes"/>
      <point x="782" y="221"/>
    </contour>
    <contour>
      <point x="747" y="392" type="qcurve" smooth="yes"/>
      <point x="747" y="61"/>
      <point x="466" y="61" type="qcurve" smooth="yes"/>
      <point x="325" y="61"/>
      <point x="252" y="155" type="qcurve" smooth="yes"/>
      <point x="185" y="240"/>
      <point x="185" y="392" type="qcurve" smooth="yes"/>
      <point x="185" y="722"/>
      <point x="747" y="722"/>
    </contour>
    <contour>
      <point x="570" y="252" type="qcurve" smooth="yes"/>
      <point x="570" y="314" type="line"/>
      <point x="536" y="314" type="line"/>
      <point x="536" y="250" type="line" smooth="yes"/>
      <point x="536" y="156"/>
      <point x="465" y="156" type="qcurve" smooth="yes"/>
      <point x="396" y="156"/>
      <point x="396" y="250" type="qcurve" smooth="yes"/>
      <point x="396" y="551" type="line" smooth="yes"/>
      <point x="396" y="645"/>
      <point x="465" y="645" type="qcurve" smooth="yes"/>
      <point x="536" y="645"/>
      <point x="536" y="551" type="qcurve" smooth="yes"/>
      <point x="536" y="492" type="line"/>
      <point x="570" y="492" type="line"/>
      <point x="570" y="549" type="line" smooth="yes"/>
      <point x="570" y="671"/>
      <point x="465" y="671" type="qcurve" smooth="yes"/>
      <point x="362" y="671"/>
      <point x="362" y="549" type="qcurve" smooth="yes"/>
      <point x="362" y="252" type="line" smooth="yes"/>
      <point x="362" y="131"/>
      <point x="465" y="131" type="qcurve" smooth="yes"/>
      <point x="570" y="131"/>
    </contour>
  </outline>
</glyph>
<glyph name="guillemotleft" format="1">
  <advance width="482"/>
  <unicode hex="00AB"/>
  <outline>
    <contour>
      <point x="285" y="141" type="line"/>
      <point x="285" y="179" type="line"/>
      <point x="100" y="334" type="line"/>
      <point x="285" y="487" type="line"/>
      <point x="285" y="526" type="line"/>
      <point x="56" y="345" type="line"/>
      <point x="56" y="322" type="line"/>
    </contour>
    <contour>
      <point x="432" y="141" type="line"/>
      <point x="432" y="179" type="line"/>
      <point x="247" y="334" type="line"/>
      <point x="432" y="487" type="line"/>
      <point x="432" y="526" type="line"/>
      <point x="205" y="345" type="line"/>
      <point x="205" y="322" type="line"/>
    </contour>
  </outline>
</glyph>
<glyph name="registered" format="1">
  <advance width="932"/>
  <unicode hex="00AE"/>
  <outline>
    <contour>
      <point x="782" y="392" type="qcurve" smooth="yes"/>
      <point x="782" y="757"/>
      <point x="466" y="757" type="qcurve" smooth="yes"/>
      <point x="306" y="757"/>
      <point x="225" y="657" type="qcurve"/>
      <point x="150" y="566"/>
      <point x="150" y="392" type="qcurve" smooth="yes"/>
      <point x="150" y="220"/>
      <point x="226" y="129" type="qcurve"/>
      <point x="307" y="27"/>
      <point x="466" y="27" type="qcurve" smooth="yes"/>
      <point x="624" y="27"/>
      <point x="706" y="127" type="qcurve" smooth="yes"/>
      <point x="782" y="221"/>
    </contour>
    <contour>
      <point x="747" y="392" type="qcurve" smooth="yes"/>
      <point x="747" y="61"/>
      <point x="466" y="61" type="qcurve" smooth="yes"/>
      <point x="325" y="61"/>
      <point x="252" y="155" type="qcurve" smooth="yes"/>
      <point x="185" y="240"/>
      <point x="185" y="392" type="qcurve" smooth="yes"/>
      <point x="185" y="722"/>
      <point x="747" y="722"/>
    </contour>
    <contour>
      <point x="579" y="245" type="line"/>
      <point x="579" y="301" type="line" smooth="yes"/>
      <point x="579" y="384"/>
      <point x="520" y="405" type="qcurve"/>
      <point x="579" y="422"/>
      <point x="579" y="502" type="qcurve" smooth="yes"/>
      <point x="579" y="531" type="line" smooth="yes"/>
      <point x="579" y="600"/>
      <point x="560" y="625" type="qcurve"/>
      <point x="538" y="656"/>
      <point x="472" y="656" type="qcurve" smooth="yes"/>
      <point x="371" y="656" type="line"/>
      <point x="371" y="131" type="line"/>
      <point x="405" y="131" type="line"/>
      <point x="405" y="387" type="line"/>
      <point x="464" y="387" type="line" smooth="yes"/>
      <point x="508" y="387"/>
      <point x="529" y="365" type="qcurve" smooth="yes"/>
      <point x="545" y="349"/>
      <point x="545" y="299" type="qcurve" smooth="yes"/>
      <point x="545" y="131" type="line"/>
      <point x="577" y="131" type="line"/>
      <point x="577" y="245" type="line"/>
    </contour>
    <contour>
      <point x="545" y="505" type="line" smooth="yes"/>
      <point x="545" y="455"/>
      <point x="530" y="437" type="qcurve" smooth="yes"/>
      <point x="513" y="417"/>
      <point x="464" y="417" type="qcurve" smooth="yes"/>
      <point x="405" y="417" type="line"/>
      <point x="405" y="629" type="line"/>
      <point x="464" y="629" type="line" smooth="yes"/>
      <point x="514" y="629"/>
      <point x="530" y="610" type="qcurve" smooth="yes"/>
      <point x="545" y="593"/>
      <point x="545" y="542" type="qcurve" smooth="yes"/>
    </contour>
  </outline>
</glyph>
<glyph name="degree" format="1">
  <advance width="369"/>
  <unicode hex="00B0"/>
  <outline>
    <contour>
      <point x="331" y="644" type="qcurve" smooth="yes"/>
      <point x="331" y="673"/>
      <point x="320" y="701" type="qcurve"/>
      <point x="307" y="730"/>
      <point x="288" y="748" type="qcurve"/>
      <point x="270" y="768"/>
      <point x="242" y="780" type="qcurve" smooth="yes"/>
      <point x="214" y="791"/>
      <point x="185" y="791" type="qcurve" smooth="yes"/>
      <point x="154" y="791"/>
      <point x="126" y="780" type="qcurve"/>
      <point x="96" y="767"/>
      <point x="80" y="748" type="qcurve"/>
      <point x="61" y="732"/>
      <point x="48" y="702" type="qcurve"/>
      <point x="37" y="674"/>
      <point x="37" y="644" type="qcurve" smooth="yes"/>
      <point x="37" y="613"/>
      <point x="48" y="585" type="qcurve" smooth="yes"/>
      <point x="57" y="562"/>
      <point x="79" y="538" type="qcurve"/>
      <point x="101" y="518"/>
      <point x="126" y="508" type="qcurve"/>
      <point x="152" y="496"/>
      <point x="184" y="496" type="qcurve" smooth="yes"/>
      <point x="245" y="496"/>
      <point x="287" y="539" type="qcurve"/>
      <point x="331" y="581"/>
    </contour>
    <contour>
      <point x="304" y="644" type="qcurve" smooth="yes"/>
      <point x="304" y="617"/>
      <point x="294" y="596" type="qcurve"/>
      <point x="285" y="574"/>
      <point x="253" y="542"/>
      <point x="232" y="533" type="qcurve" smooth="yes"/>
      <point x="209" y="524"/>
      <point x="185" y="524" type="qcurve" smooth="yes"/>
      <point x="133" y="524"/>
      <point x="65" y="592"/>
      <point x="65" y="644" type="qcurve" smooth="yes"/>
      <point x="65" y="668"/>
      <point x="74" y="691" type="qcurve" smooth="yes"/>
      <point x="82" y="712"/>
      <point x="99" y="730" type="qcurve"/>
      <point x="118" y="748"/>
      <point x="137" y="755" type="qcurve" smooth="yes"/>
      <point x="160" y="764"/>
      <point x="185" y="764" type="qcurve" smooth="yes"/>
      <point x="211" y="764"/>
      <point x="232" y="754" type="qcurve"/>
      <point x="254" y="745"/>
      <point x="269" y="728" type="qcurve"/>
      <point x="284" y="714"/>
      <point x="294" y="690" type="qcurve"/>
      <point x="304" y="670"/>
    </contour>
  </outline>
</glyph>
<glyph name="twosuperior" format="1">
  <advance width="229"/>
  <unicode hex="00B2"/>
  <outline>
    <contour>
      <point x="209" y="317" type="line"/>
      <point x="209" y="341" type="line"/>
      <point x="105" y="341" type="line"/>
      <point x="105" y="535" type="line" smooth="yes"/>
      <point x="105" y="548"/>
      <point x="106" y="553" type="qcurve" smooth="yes"/>
      <point x="108" y="562"/>
      <point x="112" y="564" type="qcurve"/>
      <point x="114" y="568"/>
      <point x="125" y="572" type="qcurve"/>
      <point x="147" y="576"/>
      <point x="151" y="576" type="qcurve" smooth="yes"/>
      <point x="169" y="578"/>
      <point x="179" y="582" type="qcurve"/>
      <point x="188" y="584"/>
      <point x="197" y="592" type="qcurve"/>
      <point x="205" y="601"/>
      <point x="206" y="612" type="qcurve"/>
      <point x="209" y="624"/>
      <point x="209" y="644" type="qcurve" smooth="yes"/>
      <point x="209" y="735" type="line" smooth="yes"/>
      <point x="209" y="811"/>
      <point x="142" y="811" type="qcurve" smooth="yes"/>
      <point x="76" y="811"/>
      <point x="76" y="735" type="qcurve" smooth="yes"/>
      <point x="76" y="696" type="line"/>
      <point x="105" y="696" type="line"/>
      <point x="105" y="736" type="line" smooth="yes"/>
      <point x="105" y="762"/>
      <point x="111" y="774" type="qcurve"/>
      <point x="121" y="787"/>
      <point x="142" y="787" type="qcurve" smooth="yes"/>
      <point x="164" y="787"/>
      <point x="174" y="774" type="qcurve" smooth="yes"/>
      <point x="174" y="773"/>
      <point x="177" y="763"/>
      <point x="178" y="759" type="qcurve" smooth="yes"/>
      <point x="180" y="747"/>
      <point x="180" y="736" type="qcurve" smooth="yes"/>
      <point x="180" y="646" type="line" smooth="yes"/>
      <point x="180" y="628"/>
      <point x="178" y="623" type="qcurve"/>
      <point x="178" y="616"/>
      <point x="172" y="610" type="qcurve" smooth="yes"/>
      <point x="167" y="605"/>
      <point x="159" y="604" type="qcurve" smooth="yes"/>
      <point x="150" y="602"/>
      <point x="135" y="601" type="qcurve" smooth="yes"/>
      <point x="76" y="595"/>
      <point x="76" y="535" type="qcurve" smooth="yes"/>
      <point x="76" y="317" type="line"/>
    </contour>
  </outline>
</glyph>
<glyph name="acute" format="1">
  <advance width="150"/>
  <unicode hex="00B4"/>
  <outline>
    <contour>
      <point x="122" y="771" type="line"/>
      <point x="87" y="789" type="line"/>
      <point x="25" y="665" type="line"/>
      <point x="59" y="647" type="line"/>
    </contour>
  </outline>
</glyph>
<glyph name="paragraph" format="1">
  <advance width="366"/>
  <unicode hex="00B6"/>
  <outline>
    <contour>
      <point x="344" y="772" type="line"/>
      <point x="344" y="804" type="line"/>
      <point x="129" y="804" type="line" smooth="yes"/>
      <point x="64" y="804"/>
      <point x="41" y="772" type="qcurve" smooth="yes"/>
      <point x="22" y="747"/>
      <point x="22" y="679" type="qcurve" smooth="yes"/>
      <point x="22" y="562" type="line" smooth="yes"/>
      <point x="22" y="452"/>
      <point x="129" y="452" type="qcurve" smooth="yes"/>
      <point x="196" y="452" type="line"/>
      <point x="196" y="-60" type="line"/>
      <point x="230" y="-60" type="line"/>
      <point x="230" y="772" type="line"/>
      <point x="280" y="772" type="line"/>
      <point x="280" y="-60" type="line"/>
      <point x="314" y="-60" type="line"/>
      <point x="314" y="772" type="line"/>
    </contour>
  </outline>
</glyph>
<glyph name="periodcentered" format="1">
  <advance width="426"/>
  <unicode hex="00B7"/>
  <outline>
    <contour>
      <point x="357" y="366" type="line"/>
      <point x="324" y="401" type="line"/>
      <point x="355" y="438"/>
      <point x="355" y="492" type="qcurve" smooth="yes"/>
      <point x="355" y="543"/>
      <point x="325" y="582" type="qcurve"/>
      <point x="357" y="615" type="line"/>
      <point x="336" y="637" type="line"/>
      <point x="304" y="605" type="line"/>
      <point x="264" y="640"/>
      <point x="209" y="640" type="qcurve" smooth="yes"/>
      <point x="158" y="640"/>
      <point x="117" y="607" type="qcurve"/>
      <point x="87" y="637" type="line"/>
      <point x="65" y="615" type="line"/>
      <point x="95" y="586" type="line"/>
      <point x="61" y="549"/>
      <point x="61" y="492" type="qcurve" smooth="yes"/>
      <point x="61" y="433"/>
      <point x="95" y="396" type="qcurve"/>
      <point x="65" y="366" type="line"/>
      <point x="87" y="345" type="line"/>
      <point x="117" y="375" type="line"/>
      <point x="158" y="345"/>
      <point x="207" y="345" type="qcurve" smooth="yes"/>
      <point x="265" y="345"/>
      <point x="302" y="379" type="qcurve"/>
      <point x="336" y="345" type="line"/>
    </contour>
    <contour>
      <point x="327" y="492" type="qcurve" smooth="yes"/>
      <point x="327" y="466"/>
      <point x="318" y="444" type="qcurve" smooth="yes"/>
      <point x="310" y="423"/>
      <point x="294" y="406" type="qcurve"/>
      <point x="278" y="391"/>
      <point x="256" y="380" type="qcurve"/>
      <point x="233" y="371"/>
      <point x="209" y="371" type="qcurve" smooth="yes"/>
      <point x="184" y="371"/>
      <point x="162" y="380" type="qcurve"/>
      <point x="140" y="391"/>
      <point x="124" y="406" type="qcurve"/>
      <point x="109" y="422"/>
      <point x="98" y="444" type="qcurve"/>
      <point x="89" y="466"/>
      <point x="89" y="492" type="qcurve" smooth="yes"/>
      <point x="89" y="516"/>
      <point x="98" y="539" type="qcurve"/>
      <point x="109" y="562"/>
      <point x="124" y="577" type="qcurve" smooth="yes"/>
      <point x="140" y="593"/>
      <point x="184" y="611"/>
      <point x="234" y="611"/>
      <point x="256" y="602" type="qcurve" smooth="yes"/>
      <point x="277" y="593"/>
      <point x="309" y="561"/>
      <point x="318" y="539" type="qcurve" smooth="yes"/>
      <point x="327" y="516"/>
    </contour>
  </outline>
</glyph>
<glyph name="cedilla" format="1">
  <advance width="249"/>
  <unicode hex="00B8"/>
  <outline>
    <contour>
      <point x="172" y="-144" type="qcurve" smooth="yes"/>
      <point x="172" y="-101" type="line" smooth="yes"/>
      <point x="172" y="-61"/>
      <point x="137" y="-61" type="qcurve" smooth="yes"/>
      <point x="127" y="-61" type="line"/>
      <point x="127" y="5" type="line"/>
      <point x="105" y="5" type="line"/>
      <point x="105" y="-81" type="line"/>
      <point x="112" y="-81" type="line"/>
      <point x="118" y="-80"/>
      <point x="124" y="-81" type="qcurve"/>
      <point x="146" y="-81"/>
      <point x="146" y="-106" type="qcurve" smooth="yes"/>
      <point x="146" y="-144" type="line" smooth="yes"/>
      <point x="146" y="-175"/>
      <point x="120" y="-175" type="qcurve"/>
      <point x="120" y="-174" type="line"/>
      <point x="76" y="-174" type="line"/>
      <point x="76" y="-195" type="line"/>
      <point x="120" y="-195" type="line" smooth="yes"/>
      <point x="172" y="-195"/>
    </contour>
  </outline>
</glyph>
<glyph name="onesuperior" format="1">
  <advance width="226"/>
  <unicode hex="00B9"/>
  <outline>
    <contour>
      <point x="171" y="315" type="line"/>
      <point x="171" y="342" type="line"/>
      <point x="155" y="342" type="line"/>
      <point x="155" y="807" type="line"/>
      <point x="105" y="789" type="line"/>
      <point x="105" y="761" type="line"/>
      <point x="126" y="769" type="line"/>
      <point x="126" y="342" type="line"/>
      <point x="110" y="342" type="line"/>
      <point x="110" y="315" type="line"/>
    </contour>
  </outline>
</glyph>
<glyph name="threequarters" format="1">
  <advance width="291"/>
  <unicode hex="00BE"/>
  <outline>
    <contour>
      <point x="416" y="270" type="line"/>
      <point x="416" y="292" type="line"/>
      <point x="386" y="292" type="line"/>
      <point x="386" y="490" type="line"/>
      <point x="357" y="490" type="line"/>
      <point x="244" y="270" type="line"/>
      <point x="357" y="270" type="line"/>
      <point x="357" y="0" type="line"/>
      <point x="386" y="0" type="line"/>
      <point x="386" y="270" type="line"/>
    </contour>
    <contour>
      <point x="287" y="811" type="line"/>
      <point x="254" y="811" type="line"/>
      <point x="6" y="0" type="line"/>
      <point x="39" y="0" type="line"/>
    </contour>
    <contour>
      <point x="45" y="387" type="qcurve" smooth="yes"/>
      <point x="45" y="537" type="line" smooth="yes"/>
      <point x="45" y="583"/>
      <point x="17" y="596" type="qcurve"/>
      <point x="45" y="611"/>
      <point x="45" y="655" type="qcurve" smooth="yes"/>
      <point x="45" y="732" type="line" smooth="yes"/>
      <point x="45" y="810"/>
      <point x="-21" y="810" type="qcurve" smooth="yes"/>
      <point x="-88" y="810"/>
      <point x="-88" y="732" type="qcurve" smooth="yes"/>
      <point x="-88" y="695" type="line"/>
      <point x="-59" y="695" type="line"/>
      <point x="-59" y="735" type="line" smooth="yes"/>
      <point x="-59" y="744"/>
      <point x="-57" y="758" type="qcurve" smooth="yes"/>
      <point x="-56" y="762"/>
      <point x="-53" y="772" type="qcurve"/>
      <point x="-42" y="786"/>
      <point x="-21" y="786" type="qcurve" smooth="yes"/>
      <point x="1" y="786"/>
      <point x="10" y="772" type="qcurve"/>
      <point x="16" y="760"/>
      <point x="16" y="735" type="qcurve" smooth="yes"/>
      <point x="16" y="657" type="line" smooth="yes"/>
      <point x="16" y="626"/>
      <point x="9" y="619" type="qcurve" smooth="yes"/>
      <point x="-2" y="607"/>
      <point x="-28" y="607" type="qcurve" smooth="yes"/>
      <point x="-53" y="607" type="line"/>
      <point x="-53" y="584" type="line"/>
      <point x="-28" y="584" type="line" smooth="yes"/>
      <point x="1" y="584"/>
      <point x="8" y="574" type="qcurve" smooth="yes"/>
      <point x="16" y="564"/>
      <point x="16" y="536" type="qcurve" smooth="yes"/>
      <point x="16" y="386" type="line" smooth="yes"/>
      <point x="16" y="335"/>
      <point x="-21" y="335" type="qcurve" smooth="yes"/>
      <point x="-42" y="335"/>
      <point x="-53" y="349" type="qcurve"/>
      <point x="-56" y="359"/>
      <point x="-57" y="364" type="qcurve" smooth="yes"/>
      <point x="-59" y="376"/>
      <point x="-59" y="386" type="qcurve" smooth="yes"/>
      <point x="-59" y="429" type="line"/>
      <point x="-88" y="429" type="line"/>
      <point x="-88" y="387" type="line" smooth="yes"/>
      <point x="-88" y="310"/>
      <point x="-21" y="310" type="qcurve" smooth="yes"/>
      <point x="45" y="310"/>
    </contour>
    <contour>
      <point x="357" y="292" type="line"/>
      <point x="290" y="292" type="line"/>
      <point x="357" y="426" type="line"/>
    </contour>
  </outline>
</glyph>
<glyph name="questiondown" format="1">
  <advance width="275"/>
  <unicode hex="00BF"/>
  <outline>
    <contour>
      <point x="236" y="-60" type="qcurve" smooth="yes"/>
      <point x="236" y="-3" type="line"/>
      <point x="201" y="-3" type="line"/>
      <point x="201" y="-63" type="line" smooth="yes"/>
      <point x="201" y="-155"/>
      <point x="61" y="-155"/>
      <point x="61" y="-63" type="qcurve" smooth="yes"/>
      <point x="61" y="60" type="line" smooth="yes"/>
      <point x="61" y="114"/>
      <point x="79" y="132" type="qcurve"/>
      <point x="96" y="155"/>
      <point x="149" y="155" type="qcurve"/>
      <point x="149" y="509" type="line"/>
      <point x="115" y="509" type="line"/>
      <point x="115" y="179" type="line"/>
      <point x="63" y="171"/>
      <point x="44" y="139" type="qcurve"/>
      <point x="27" y="114"/>
      <point x="27" y="57" type="qcurve" smooth="yes"/>
      <point x="27" y="-60" type="line" smooth="yes"/>
      <point x="27" y="-183"/>
      <point x="131" y="-183" type="qcurve" smooth="yes"/>
      <point x="236" y="-183"/>
    </contour>
    <contour>
      <point x="149" y="589" type="line"/>
      <point x="149" y="626" type="line"/>
      <point x="116" y="626" type="line"/>
      <point x="116" y="589" type="line"/>
    </contour>
  </outline>
</glyph>
<glyph name="Acircumflex" format="1">
  <advance width="280"/>
  <unicode hex="00C2"/>
  <outline>
    <contour>
      <point x="270" y="0" type="line"/>
      <point x="154" y="804" type="line"/>
      <point x="126" y="804" type="line"/>
      <point x="10" y="0" type="line"/>
      <point x="40" y="0" type="line"/>
      <point x="95" y="379" type="line"/>
      <point x="184" y="379" type="line"/>
      <point x="237" y="0" type="line"/>
    </contour>
    <contour>
      <point x="180" y="410" type="line"/>
      <point x="99" y="410" type="line"/>
      <point x="140" y="695" type="line"/>
    </contour>
    <contour>
      <point x="205" y="842" type="line"/>
      <point x="159" y="997" type="line"/>
      <point x="121" y="997" type="line"/>
      <point x="75" y="842" type="line"/>
      <point x="109" y="842" type="line"/>
      <point x="140" y="937" type="line"/>
      <point x="172" y="842" type="line"/>
    </contour>
  </outline>
</glyph>
<glyph name="Atilde" format="1">
  <advance width="280"/>
  <unicode hex="00C3"/>
  <outline>
    <contour>
      <point x="270" y="0" type="line"/>
      <point x="154" y="804" type="line"/>
      <point x="126" y="804" type="line"/>
      <point x="10" y="0" type="line"/>
      <point x="40" y="0" type="line"/>
      <point x="95" y="379" type="line"/>
      <point x="184" y="379" type="line"/>
      <point x="237" y="0" type="line"/>
    </contour>
    <contour>
      <point x="180" y="410" type="line"/>
      <point x="99" y="410" type="line"/>
      <point x="140" y="695" type="line"/>
    </contour>
    <contour>
      <point x="265" y="949" type="line"/>
      <point x="212" y="895"/>
      <point x="187" y="896" type="qcurve" smooth="yes"/>
      <point x="175" y="897"/>
      <point x="142" y="924" type="qcurve" smooth="yes"/>
      <point x="111" y="949"/>
      <point x="96" y="951" type="qcurve" smooth="yes"/>
      <point x="82" y="952"/>
      <point x="60" y="942" type="qcurve"/>
      <point x="41" y="929"/>
      <point x="20" y="907" type="qcurve"/>
      <point x="16" y="865" type="line"/>
      <point x="68" y="920"/>
      <point x="92" y="919" type="qcurve"/>
      <point x="104" y="916"/>
      <point x="130" y="896" type="qcurve"/>
      <point x="136" y="891" type="line" smooth="yes"/>
      <point x="148" y="881"/>
      <point x="163" y="872" type="qcurve" smooth="yes"/>
      <point x="173" y="866"/>
      <point x="185" y="864" type="qcurve" smooth="yes"/>
      <point x="216" y="861"/>
      <point x="260" y="906" type="qcurve"/>
    </contour>
  </outline>
</glyph>
<glyph name="Adieresis" format="1">
  <advance width="280"/>
  <unicode hex="00C4"/>
  <outline>
    <contour>
      <point x="270" y="0" type="line"/>
      <point x="154" y="804" type="line"/>
      <point x="126" y="804" type="line"/>
      <point x="10" y="0" type="line"/>
      <point x="40" y="0" type="line"/>
      <point x="95" y="379" type="line"/>
      <point x="184" y="379" type="line"/>
      <point x="237" y="0" type="line"/>
    </contour>
    <contour>
      <point x="180" y="410" type="line"/>
      <point x="99" y="410" type="line"/>
      <point x="140" y="695" type="line"/>
    </contour>
    <contour>
      <point x="205" y="889" type="line"/>
      <point x="205" y="926" type="line"/>
      <point x="172" y="926" type="line"/>
      <point x="172" y="889" type="line"/>
    </contour>
    <contour>
      <point x="106" y="889" type="line"/>
      <point x="106" y="926" type="line"/>
      <point x="74" y="926" type="line"/>
      <point x="74" y="889" type="line"/>
    </contour>
  </outline>
</glyph>
<glyph name="Aring" format="1">
  <advance width="280"/>
  <unicode hex="00C5"/>
  <outline>
    <contour>
      <point x="270" y="0" type="line"/>
      <point x="154" y="804" type="line"/>
      <point x="126" y="804" type="line"/>
      <point x="10" y="0" type="line"/>
      <point x="40" y="0" type="line"/>
      <point x="95" y="379" type="line"/>
      <point x="184" y="379" type="line"/>
      <point x="237" y="0" type="line"/>
    </contour>
    <contour>
      <point x="225" y="936"/>
      <point x="200" y="961" type="qcurve" smooth="yes"/>
      <point x="176" y="986"/>
      <point x="106" y="986"/>
      <point x="82" y="961" type="qcurve" smooth="yes"/>
      <point x="57" y="936"/>
      <point x="57" y="901" type="qcurve" smooth="yes"/>
      <point x="57" y="867"/>
      <point x="80" y="842" type="qcurve" smooth="yes"/>
      <point x="104" y="817"/>
      <point x="141" y="817" type="qcurve" smooth="yes"/>
      <point x="176" y="817"/>
      <point x="200" y="842" type="qcurve"/>
      <point x="225" y="866"/>
    </contour>
    <contour>
      <point x="180" y="410" type="line"/>
      <point x="99" y="410" type="line"/>
      <point x="140" y="695" type="line"/>
    </contour>
    <contour>
      <point x="194" y="878"/>
      <point x="179" y="862" type="qcurve" smooth="yes"/>
      <point x="164" y="847"/>
      <point x="141" y="847" type="qcurve" smooth="yes"/>
      <point x="117" y="847"/>
      <point x="104" y="862" type="qcurve" smooth="yes"/>
      <point x="89" y="878"/>
      <point x="89" y="924"/>
      <point x="104" y="940" type="qcurve" smooth="yes"/>
      <point x="117" y="955"/>
      <point x="141" y="955" type="qcurve" smooth="yes"/>
      <point x="164" y="955"/>
      <point x="179" y="940" type="qcurve" smooth="yes"/>
      <point x="194" y="924"/>
    </contour>
  </outline>
</glyph>
<glyph name="AE" format="1">
  <advance width="475"/>
  <unicode hex="00C6"/>
  <outline>
    <contour>
      <point x="439" y="0" type="line"/>
      <point x="439" y="26" type="line"/>
      <point x="269" y="26" type="line"/>
      <point x="269" y="451" type="line"/>
      <point x="439" y="451" type="line"/>
      <point x="439" y="476" type="line"/>
      <point x="269" y="476" type="line"/>
      <point x="269" y="777" type="line"/>
      <point x="439" y="777" type="line"/>
      <point x="439" y="804" type="line"/>
      <point x="241" y="804" type="line"/>
      <point x="10" y="0" type="line"/>
      <point x="40" y="0" type="line"/>
      <point x="149" y="379" type="line"/>
      <point x="239" y="379" type="line"/>
      <point x="237" y="0" type="line"/>
    </contour>
    <contour>
      <point x="240" y="695" type="line"/>
      <point x="239" y="410" type="line"/>
      <point x="157" y="410" type="line"/>
    </contour>
  </outline>
</glyph>
<glyph name="Ccedilla" format="1">
  <advance width="275"/>
  <unicode hex="00C7"/>
  <outline>
    <contour>
      <point x="246" y="114" type="qcurve" smooth="yes"/>
      <point x="246" y="176" type="line"/>
      <point x="212" y="176" type="line"/>
      <point x="212" y="112" type="line" smooth="yes"/>
      <point x="212" y="17"/>
      <point x="72" y="17"/>
      <point x="72" y="112" type="qcurve" smooth="yes"/>
      <point x="72" y="692" type="line" smooth="yes"/>
      <point x="72" y="785"/>
      <point x="212" y="785"/>
      <point x="212" y="692" type="qcurve" smooth="yes"/>
      <point x="212" y="632" type="line"/>
      <point x="246" y="632" type="line"/>
      <point x="246" y="690" type="line" smooth="yes"/>
      <point x="246" y="811"/>
      <point x="142" y="811" type="qcurve" smooth="yes"/>
      <point x="39" y="811"/>
      <point x="39" y="690" type="qcurve" smooth="yes"/>
      <point x="39" y="114" type="line" smooth="yes"/>
      <point x="39" y="2"/>
      <point x="127" y="-8" type="qcurve"/>
      <point x="127" y="-81" type="line"/>
      <point x="135" y="-81" type="line"/>
      <point x="140" y="-80"/>
      <point x="147" y="-81" type="qcurve"/>
      <point x="170" y="-81"/>
      <point x="170" y="-106" type="qcurve" smooth="yes"/>
      <point x="170" y="-144" type="line" smooth="yes"/>
      <point x="170" y="-175"/>
      <point x="144" y="-175" type="qcurve"/>
      <point x="144" y="-174" type="line"/>
      <point x="100" y="-174" type="line"/>
      <point x="100" y="-195" type="line"/>
      <point x="144" y="-195" type="line" smooth="yes"/>
      <point x="196" y="-195"/>
      <point x="196" y="-144" type="qcurve" smooth="yes"/>
      <point x="196" y="-101" type="line" smooth="yes"/>
      <point x="196" y="-61"/>
      <point x="161" y="-61" type="qcurve" smooth="yes"/>
      <point x="151" y="-61" type="line"/>
      <point x="151" y="-8" type="line"/>
      <point x="246" y="-2"/>
    </contour>
  </outline>
</glyph>
<glyph name="Ecircumflex" format="1">
  <advance width="290"/>
  <unicode hex="00CA"/>
  <outline>
    <contour>
      <point x="246" y="0" type="line"/>
      <point x="246" y="26" type="line"/>
      <point x="76" y="26" type="line"/>
      <point x="76" y="451" type="line"/>
      <point x="246" y="451" type="line"/>
      <point x="246" y="476" type="line"/>
      <point x="76" y="476" type="line"/>
      <point x="76" y="777" type="line"/>
      <point x="246" y="777" type="line"/>
      <point x="246" y="804" type="line"/>
      <point x="42" y="804" type="line"/>
      <point x="42" y="0" type="line"/>
    </contour>
    <contour>
      <point x="209" y="842" type="line"/>
      <point x="164" y="997" type="line"/>
      <point x="126" y="997" type="line"/>
      <point x="80" y="842" type="line"/>
      <point x="114" y="842" type="line"/>
      <point x="145" y="937" type="line"/>
      <point x="177" y="842" type="line"/>
    </contour>
  </outline>
</glyph>
<glyph name="Edieresis" format="1">
  <advance width="290"/>
  <unicode hex="00CB"/>
  <outline>
    <contour>
      <point x="246" y="0" type="line"/>
      <point x="246" y="26" type="line"/>
      <point x="76" y="26" type="line"/>
      <point x="76" y="451" type="line"/>
      <point x="246" y="451" type="line"/>
      <point x="246" y="476" type="line"/>
      <point x="76" y="476" type="line"/>
      <point x="76" y="777" type="line"/>
      <point x="246" y="777" type="line"/>
      <point x="246" y="804" type="line"/>
      <point x="42" y="804" type="line"/>
      <point x="42" y="0" type="line"/>
    </contour>
    <contour>
      <point x="210" y="889" type="line"/>
      <point x="210" y="926" type="line"/>
      <point x="177" y="926" type="line"/>
      <point x="177" y="889" type="line"/>
    </contour>
    <contour>
      <point x="111" y="889" type="line"/>
      <point x="111" y="926" type="line"/>
      <point x="79" y="926" type="line"/>
      <point x="79" y="889" type="line"/>
    </contour>
  </outline>
</glyph>
<glyph name="Otilde" format="1">
  <advance width="285"/>
  <unicode hex="00D5"/>
  <outline>
    <contour>
      <point x="246" y="114" type="qcurve" smooth="yes"/>
      <point x="246" y="690" type="line" smooth="yes"/>
      <point x="246" y="811"/>
      <point x="142" y="811" type="qcurve" smooth="yes"/>
      <point x="39" y="811"/>
      <point x="39" y="690" type="qcurve" smooth="yes"/>
      <point x="39" y="114" type="line" smooth="yes"/>
      <point x="39" y="-8"/>
      <point x="142" y="-8" type="qcurve" smooth="yes"/>
      <point x="246" y="-8"/>
    </contour>
    <contour>
      <point x="212" y="112" type="line" smooth="yes"/>
      <point x="212" y="17"/>
      <point x="72" y="17"/>
      <point x="72" y="112" type="qcurve" smooth="yes"/>
      <point x="72" y="692" type="line" smooth="yes"/>
      <point x="72" y="785"/>
      <point x="212" y="785"/>
      <point x="212" y="692" type="qcurve" smooth="yes"/>
    </contour>
    <contour>
      <point x="266" y="949" type="line"/>
      <point x="214" y="894"/>
      <point x="190" y="896" type="qcurve" smooth="yes"/>
      <point x="178" y="897"/>
      <point x="145" y="924" type="qcurve" smooth="yes"/>
      <point x="114" y="950"/>
      <point x="97" y="951" type="qcurve" smooth="yes"/>
      <point x="84" y="952"/>
      <point x="62" y="942" type="qcurve"/>
      <point x="43" y="929"/>
      <point x="22" y="907" type="qcurve"/>
      <point x="17" y="865" type="line"/>
      <point x="72" y="920"/>
      <point x="95" y="919" type="qcurve" smooth="yes"/>
      <point x="96" y="918"/>
      <point x="106" y="914"/>
      <point x="114" y="910"/>
      <point x="132" y="896" type="qcurve" smooth="yes"/>
      <point x="139" y="891" type="line"/>
      <point x="151" y="881"/>
      <point x="166" y="872" type="qcurve" smooth="yes"/>
      <point x="176" y="866"/>
      <point x="187" y="864" type="qcurve" smooth="yes"/>
      <point x="220" y="861"/>
      <point x="262" y="906" type="qcurve"/>
    </contour>
  </outline>
</glyph>
<glyph name="Odieresis" format="1">
  <advance width="285"/>
  <unicode hex="00D6"/>
  <outline>
    <contour>
      <point x="246" y="114" type="qcurve" smooth="yes"/>
      <point x="246" y="690" type="line" smooth="yes"/>
      <point x="246" y="811"/>
      <point x="142" y="811" type="qcurve" smooth="yes"/>
      <point x="39" y="811"/>
      <point x="39" y="690" type="qcurve" smooth="yes"/>
      <point x="39" y="114" type="line" smooth="yes"/>
      <point x="39" y="-8"/>
      <point x="142" y="-8" type="qcurve" smooth="yes"/>
      <point x="246" y="-8"/>
    </contour>
    <contour>
      <point x="212" y="112" type="line" smooth="yes"/>
      <point x="212" y="17"/>
      <point x="72" y="17"/>
      <point x="72" y="112" type="qcurve" smooth="yes"/>
      <point x="72" y="692" type="line" smooth="yes"/>
      <point x="72" y="785"/>
      <point x="212" y="785"/>
      <point x="212" y="692" type="qcurve" smooth="yes"/>
    </contour>
    <contour>
      <point x="207" y="889" type="line"/>
      <point x="207" y="926" type="line"/>
      <point x="175" y="926" type="line"/>
      <point x="175" y="889" type="line"/>
    </contour>
    <contour>
      <point x="109" y="889" type="line"/>
      <point x="109" y="926" type="line"/>
      <point x="77" y="926" type="line"/>
      <point x="77" y="889" type="line"/>
    </contour>
  </outline>
</glyph>
<glyph name="multiply" format="1">
  <advance width="309"/>
  <unicode hex="00D7"/>
  <outline>
    <contour>
      <point x="285" y="235" type="line"/>
      <point x="180" y="339" type="line"/>
      <point x="285" y="444" type="line"/>
      <point x="264" y="466" type="line"/>
      <point x="159" y="361" type="line"/>
      <point x="54" y="466" type="line"/>
      <point x="31" y="444" type="line"/>
      <point x="136" y="339" type="line"/>
      <point x="31" y="235" type="line"/>
      <point x="54" y="212" type="line"/>
      <point x="159" y="317" type="line"/>
      <point x="264" y="212" type="line"/>
    </contour>
  </outline>
</glyph>
<glyph name="Yacute" format="1">
  <advance width="280"/>
  <unicode hex="00DD"/>
  <outline>
    <contour>
      <point x="270" y="804" type="line"/>
      <point x="236" y="804" type="line"/>
      <point x="140" y="460" type="line"/>
      <point x="47" y="804" type="line"/>
      <point x="10" y="804" type="line"/>
      <point x="122" y="414" type="line"/>
      <point x="122" y="0" type="line"/>
      <point x="156" y="0" type="line"/>
      <point x="156" y="412" type="line"/>
    </contour>
    <contour>
      <point x="189" y="971" type="line"/>
      <point x="154" y="987" type="line"/>
      <point x="91" y="865" type="line"/>
      <point x="126" y="847" type="line"/>
    </contour>
  </outline>
</glyph>
<glyph name="atilde" format="1">
  <advance width="285"/>
  <unicode hex="00E3"/>
  <outline>
    <contour>
      <point x="266" y="949" type="line"/>
      <point x="214" y="894"/>
      <point x="190" y="896" type="qcurve" smooth="yes"/>
      <point x="178" y="897"/>
      <point x="145" y="924" type="qcurve" smooth="yes"/>
      <point x="114" y="950"/>
      <point x="97" y="951" type="qcurve" smooth="yes"/>
      <point x="84" y="952"/>
      <point x="62" y="942" type="qcurve"/>
      <point x="43" y="929"/>
      <point x="22" y="907" type="qcurve"/>
      <point x="17" y="865" type="line"/>
      <point x="72" y="920"/>
      <point x="95" y="919" type="qcurve" smooth="yes"/>
      <point x="96" y="918"/>
      <point x="106" y="914"/>
      <point x="114" y="910"/>
      <point x="132" y="896" type="qcurve" smooth="yes"/>
      <point x="139" y="891" type="line"/>
      <point x="151" y="881"/>
      <point x="166" y="872" type="qcurve" smooth="yes"/>
      <point x="176" y="866"/>
      <point x="187" y="864" type="qcurve" smooth="yes"/>
      <point x="220" y="861"/>
      <point x="262" y="906" type="qcurve"/>
    </contour>
    <contour>
      <point x="246" y="683" type="line" smooth="yes"/>
      <point x="246" y="805"/>
      <point x="142" y="805" type="qcurve" smooth="yes"/>
      <point x="39" y="805"/>
      <point x="39" y="683" type="qcurve" smooth="yes"/>
      <point x="39" y="654" type="line"/>
      <point x="72" y="654" type="line"/>
      <point x="72" y="685" type="line" smooth="yes"/>
      <point x="72" y="779"/>
      <point x="212" y="779"/>
      <point x="212" y="685" type="qcurve" smooth="yes"/>
      <point x="212" y="473" type="line"/>
      <point x="189" y="493"/>
      <point x="142" y="493" type="qcurve" smooth="yes"/>
      <point x="39" y="493"/>
      <point x="39" y="372" type="qcurve" smooth="yes"/>
      <point x="39" y="114" type="line" smooth="yes"/>
      <point x="39" y="-8"/>
      <point x="142" y="-8" type="qcurve" smooth="yes"/>
      <point x="186" y="-8"/>
      <point x="211" y="11" type="qcurve"/>
      <point x="211" y="-4" type="line"/>
      <point x="245" y="-4" type="line"/>
    </contour>
    <contour>
      <point x="211" y="85" type="line"/>
      <point x="203" y="17"/>
      <point x="142" y="17" type="qcurve" smooth="yes"/>
      <point x="100" y="17"/>
      <point x="84" y="45" type="qcurve" smooth="yes"/>
      <point x="72" y="66"/>
      <point x="72" y="112" type="qcurve" smooth="yes"/>
      <point x="72" y="375" type="line" smooth="yes"/>
      <point x="72" y="467"/>
      <point x="142" y="467" type="qcurve" smooth="yes"/>
      <point x="203" y="467"/>
      <point x="211" y="402" type="qcurve"/>
    </contour>
  </outline>
</glyph>
<glyph name="aring" format="1">
  <advance width="285"/>
  <unicode hex="00E5"/>
  <outline>
    <contour>
      <point x="224" y="934" type="qcurve" smooth="yes"/>
      <point x="224" y="968"/>
      <point x="200" y="994" type="qcurve"/>
      <point x="174" y="1018"/>
      <point x="106" y="1018"/>
      <point x="80" y="994" type="qcurve"/>
      <point x="56" y="968"/>
      <point x="56" y="934" type="qcurve" smooth="yes"/>
      <point x="56" y="917"/>
      <point x="62" y="902" type="qcurve" smooth="yes"/>
      <point x="69" y="887"/>
      <point x="80" y="874" type="qcurve"/>
      <point x="90" y="864"/>
      <point x="106" y="856" type="qcurve"/>
      <point x="121" y="850"/>
      <point x="139" y="850" type="qcurve" smooth="yes"/>
      <point x="174" y="850"/>
      <point x="199" y="874" type="qcurve" smooth="yes"/>
      <point x="224" y="899"/>
    </contour>
    <contour>
      <point x="192" y="912"/>
      <point x="178" y="896" type="qcurve" smooth="yes"/>
      <point x="163" y="880"/>
      <point x="117" y="880"/>
      <point x="102" y="896" type="qcurve" smooth="yes"/>
      <point x="87" y="911"/>
      <point x="87" y="957"/>
      <point x="102" y="972" type="qcurve" smooth="yes"/>
      <point x="117" y="988"/>
      <point x="163" y="988"/>
      <point x="178" y="972" type="qcurve" smooth="yes"/>
      <point x="192" y="956"/>
    </contour>
    <contour>
      <point x="246" y="683" type="line" smooth="yes"/>
      <point x="246" y="805"/>
      <point x="142" y="805" type="qcurve" smooth="yes"/>
      <point x="39" y="805"/>
      <point x="39" y="683" type="qcurve" smooth="yes"/>
      <point x="39" y="654" type="line"/>
      <point x="72" y="654" type="line"/>
      <point x="72" y="685" type="line" smooth="yes"/>
      <point x="72" y="779"/>
      <point x="212" y="779"/>
      <point x="212" y="685" type="qcurve" smooth="yes"/>
      <point x="212" y="473" type="line"/>
      <point x="189" y="493"/>
      <point x="142" y="493" type="qcurve" smooth="yes"/>
      <point x="39" y="493"/>
      <point x="39" y="372" type="qcurve" smooth="yes"/>
      <point x="39" y="114" type="line" smooth="yes"/>
      <point x="39" y="-8"/>
      <point x="142" y="-8" type="qcurve" smooth="yes"/>
      <point x="186" y="-8"/>
      <point x="211" y="11" type="qcurve"/>
      <point x="211" y="-4" type="line"/>
      <point x="245" y="-4" type="line"/>
    </contour>
    <contour>
      <point x="211" y="85" type="line"/>
      <point x="203" y="17"/>
      <point x="142" y="17" type="qcurve" smooth="yes"/>
      <point x="100" y="17"/>
      <point x="84" y="45" type="qcurve" smooth="yes"/>
      <point x="72" y="66"/>
      <point x="72" y="112" type="qcurve" smooth="yes"/>
      <point x="72" y="375" type="line" smooth="yes"/>
      <point x="72" y="467"/>
      <point x="142" y="467" type="qcurve" smooth="yes"/>
      <point x="203" y="467"/>
      <point x="211" y="402" type="qcurve"/>
    </contour>
  </outline>
</glyph>
<glyph name="ae" format="1">
  <advance width="462"/>
  <unicode hex="00E6"/>
  <outline>
    <contour>
      <point x="421" y="114" type="qcurve" smooth="yes"/>
      <point x="421" y="131" type="line"/>
      <point x="387" y="131" type="line"/>
      <point x="387" y="112" type="line" smooth="yes"/>
      <point x="387" y="17"/>
      <point x="247" y="17"/>
      <point x="247" y="112" type="qcurve" smooth="yes"/>
      <point x="247" y="444" type="line"/>
      <point x="421" y="444" type="line"/>
      <point x="421" y="682" type="line" smooth="yes"/>
      <point x="421" y="804"/>
      <point x="317" y="804" type="qcurve" smooth="yes"/>
      <point x="254" y="804"/>
      <point x="230" y="759" type="qcurve"/>
      <point x="206" y="804"/>
      <point x="142" y="804" type="qcurve" smooth="yes"/>
      <point x="39" y="804"/>
      <point x="39" y="682" type="qcurve" smooth="yes"/>
      <point x="39" y="653" type="line"/>
      <point x="72" y="653" type="line"/>
      <point x="72" y="684" type="line" smooth="yes"/>
      <point x="72" y="778"/>
      <point x="212" y="778"/>
      <point x="212" y="684" type="qcurve" smooth="yes"/>
      <point x="212" y="480" type="line"/>
      <point x="189" y="500"/>
      <point x="142" y="500" type="qcurve" smooth="yes"/>
      <point x="39" y="500"/>
      <point x="39" y="379" type="qcurve" smooth="yes"/>
      <point x="39" y="114" type="line" smooth="yes"/>
      <point x="39" y="-8"/>
      <point x="142" y="-8" type="qcurve" smooth="yes"/>
      <point x="186" y="-8"/>
      <point x="211" y="11" type="qcurve"/>
      <point x="211" y="-4" type="line"/>
      <point x="244" y="-4" type="line"/>
      <point x="244" y="17" type="line"/>
      <point x="270" y="-8"/>
      <point x="317" y="-8" type="qcurve" smooth="yes"/>
      <point x="421" y="-8"/>
    </contour>
    <contour>
      <point x="211" y="85" type="line"/>
      <point x="203" y="17"/>
      <point x="142" y="17" type="qcurve" smooth="yes"/>
      <point x="100" y="17"/>
      <point x="84" y="45" type="qcurve" smooth="yes"/>
      <point x="72" y="66"/>
      <point x="72" y="112" type="qcurve" smooth="yes"/>
      <point x="72" y="382" type="line" smooth="yes"/>
      <point x="72" y="474"/>
      <point x="142" y="474" type="qcurve" smooth="yes"/>
      <point x="203" y="474"/>
      <point x="211" y="409" type="qcurve"/>
    </contour>
    <contour>
      <point x="387" y="475" type="line"/>
      <point x="247" y="475" type="line"/>
      <point x="247" y="684" type="line" smooth="yes"/>
      <point x="247" y="778"/>
      <point x="387" y="778"/>
      <point x="387" y="684" type="qcurve" smooth="yes"/>
    </contour>
  </outline>
</glyph>
<glyph name="egrave" format="1">
  <advance width="285"/>
  <unicode hex="00E8"/>
  <outline>
    <contour>
      <point x="191" y="865" type="line"/>
      <point x="129" y="987" type="line"/>
      <point x="94" y="971" type="line"/>
      <point x="156" y="847" type="line"/>
    </contour>
    <contour>
      <point x="246" y="114" type="qcurve" smooth="yes"/>
      <point x="246" y="131" type="line"/>
      <point x="212" y="131" type="line"/>
      <point x="212" y="112" type="line" smooth="yes"/>
      <point x="212" y="17"/>
      <point x="72" y="17"/>
      <point x="72" y="112" type="qcurve" smooth="yes"/>
      <point x="72" y="454" type="line"/>
      <point x="246" y="454" type="line"/>
      <point x="246" y="681" type="line" smooth="yes"/>
      <point x="246" y="803"/>
      <point x="142" y="803" type="qcurve" smooth="yes"/>
      <point x="39" y="803"/>
      <point x="39" y="681" type="qcurve" smooth="yes"/>
      <point x="39" y="114" type="line" smooth="yes"/>
      <point x="39" y="-8"/>
      <point x="142" y="-8" type="qcurve" smooth="yes"/>
      <point x="246" y="-8"/>
    </contour>
    <contour>
      <point x="212" y="485" type="line"/>
      <point x="72" y="485" type="line"/>
      <point x="72" y="683" type="line" smooth="yes"/>
      <point x="72" y="777"/>
      <point x="212" y="777"/>
      <point x="212" y="683" type="qcurve" smooth="yes"/>
    </contour>
  </outline>
</glyph>
<glyph name="ecircumflex" format="1">
  <advance width="285"/>
  <unicode hex="00EA"/>
  <outline>
    <contour>
      <point x="207" y="842" type="line"/>
      <point x="161" y="997" type="line"/>
      <point x="124" y="997" type="line"/>
      <point x="79" y="842" type="line"/>
      <point x="111" y="842" type="line"/>
      <point x="142" y="937" type="line"/>
      <point x="175" y="842" type="line"/>
    </contour>
    <contour>
      <point x="246" y="114" type="qcurve" smooth="yes"/>
      <point x="246" y="131" type="line"/>
      <point x="212" y="131" type="line"/>
      <point x="212" y="112" type="line" smooth="yes"/>
      <point x="212" y="17"/>
      <point x="72" y="17"/>
      <point x="72" y="112" type="qcurve" smooth="yes"/>
      <point x="72" y="454" type="line"/>
      <point x="246" y="454" type="line"/>
      <point x="246" y="681" type="line" smooth="yes"/>
      <point x="246" y="803"/>
      <point x="142" y="803" type="qcurve" smooth="yes"/>
      <point x="39" y="803"/>
      <point x="39" y="681" type="qcurve" smooth="yes"/>
      <point x="39" y="114" type="line" smooth="yes"/>
      <point x="39" y="-8"/>
      <point x="142" y="-8" type="qcurve" smooth="yes"/>
      <point x="246" y="-8"/>
    </contour>
    <contour>
      <point x="212" y="485" type="line"/>
      <point x="72" y="485" type="line"/>
      <point x="72" y="683" type="line" smooth="yes"/>
      <point x="72" y="777"/>
      <point x="212" y="777"/>
      <point x="212" y="683" type="qcurve" smooth="yes"/>
    </contour>
  </outline>
</glyph>
<glyph name="edieresis" format="1">
  <advance width="285"/>
  <unicode hex="00EB"/>
  <outline>
    <contour>
      <point x="207" y="889" type="line"/>
      <point x="207" y="926" type="line"/>
      <point x="175" y="926" type="line"/>
      <point x="175" y="889" type="line"/>
    </contour>
    <contour>
      <point x="109" y="889" type="line"/>
      <point x="109" y="926" type="line"/>
      <point x="77" y="926" type="line"/>
      <point x="77" y="889" type="line"/>
    </contour>
    <contour>
      <point x="246" y="114" type="qcurve" smooth="yes"/>
      <point x="246" y="131" type="line"/>
      <point x="212" y="131" type="line"/>
      <point x="212" y="112" type="line" smooth="yes"/>
      <point x="212" y="17"/>
      <point x="72" y="17"/>
      <point x="72" y="112" type="qcurve" smooth="yes"/>
      <point x="72" y="454" type="line"/>
      <point x="246" y="454" type="line"/>
      <point x="246" y="681" type="line" smooth="yes"/>
      <point x="246" y="803"/>
      <point x="142" y="803" type="qcurve" smooth="yes"/>
      <point x="39" y="803"/>
      <point x="39" y="681" type="qcurve" smooth="yes"/>
      <point x="39" y="114" type="line" smooth="yes"/>
      <point x="39" y="-8"/>
      <point x="142" y="-8" type="qcurve" smooth="yes"/>
      <point x="246" y="-8"/>
    </contour>
    <contour>
      <point x="212" y="485" type="line"/>
      <point x="72" y="485" type="line"/>
      <point x="72" y="683" type="line" smooth="yes"/>
      <point x="72" y="777"/>
      <point x="212" y="777"/>
      <point x="212" y="683" type="qcurve" smooth="yes"/>
    </contour>
  </outline>
</glyph>
<glyph name="icircumflex" format="1">
  <advance width="127"/>
  <unicode hex="00EE"/>
  <outline>
    <contour>
      <point x="102" y="1" type="line"/>
      <point x="102" y="32" type="line"/>
      <point x="80" y="32" type="line"/>
      <point x="80" y="771" type="line"/>
      <point x="102" y="771" type="line"/>
      <point x="102" y="802" type="line"/>
      <point x="80" y="802" type="line"/>
      <point x="80" y="804" type="line"/>
      <point x="47" y="804" type="line"/>
      <point x="47" y="802" type="line"/>
      <point x="26" y="802" type="line"/>
      <point x="26" y="771" type="line"/>
      <point x="47" y="771" type="line"/>
      <point x="47" y="32" type="line"/>
      <point x="26" y="32" type="line"/>
      <point x="26" y="1" type="line"/>
      <point x="47" y="1" type="line"/>
      <point x="47" y="0" type="line"/>
      <point x="80" y="0" type="line"/>
      <point x="80" y="1" type="line"/>
    </contour>
    <contour>
      <point x="129" y="842" type="line"/>
      <point x="82" y="997" type="line"/>
      <point x="44" y="997" type="line"/>
      <point x="-1" y="842" type="line"/>
      <point x="32" y="842" type="line"/>
      <point x="64" y="937" type="line"/>
      <point x="96" y="842" type="line"/>
    </contour>
  </outline>
</glyph>
<glyph name="idieresis" format="1">
  <advance width="127"/>
  <unicode hex="00EF"/>
  <outline>
    <contour>
      <point x="102" y="1" type="line"/>
      <point x="102" y="32" type="line"/>
      <point x="80" y="32" type="line"/>
      <point x="80" y="771" type="line"/>
      <point x="102" y="771" type="line"/>
      <point x="102" y="802" type="line"/>
      <point x="80" y="802" type="line"/>
      <point x="80" y="804" type="line"/>
      <point x="47" y="804" type="line"/>
      <point x="47" y="802" type="line"/>
      <point x="26" y="802" type="line"/>
      <point x="26" y="771" type="line"/>
      <point x="47" y="771" type="line"/>
      <point x="47" y="32" type="line"/>
      <point x="26" y="32" type="line"/>
      <point x="26" y="1" type="line"/>
      <point x="47" y="1" type="line"/>
      <point x="47" y="0" type="line"/>
      <point x="80" y="0" type="line"/>
      <point x="80" y="1" type="line"/>
    </contour>
    <contour>
      <point x="129" y="889" type="line"/>
      <point x="129" y="926" type="line"/>
      <point x="96" y="926" type="line"/>
      <point x="96" y="889" type="line"/>
    </contour>
    <contour>
      <point x="30" y="889" type="line"/>
      <point x="30" y="926" type="line"/>
      <point x="-1" y="926" type="line"/>
      <point x="-1" y="889" type="line"/>
    </contour>
  </outline>
</glyph>
<glyph name="eth" format="1">
  <advance width="359"/>
  <unicode hex="00F0"/>
  <outline>
    <contour>
      <point x="340" y="631" type="line"/>
      <point x="288" y="576"/>
      <point x="264" y="579" type="qcurve" smooth="yes"/>
      <point x="261" y="580"/>
      <point x="246" y="586" type="qcurve"/>
      <point x="246" y="690" type="line" smooth="yes"/>
      <point x="246" y="811"/>
      <point x="144" y="811" type="qcurve" smooth="yes"/>
      <point x="39" y="811"/>
      <point x="39" y="690" type="qcurve" smooth="yes"/>
      <point x="39" y="627" type="line"/>
      <point x="74" y="627" type="line"/>
      <point x="74" y="692" type="line" smooth="yes"/>
      <point x="74" y="785"/>
      <point x="214" y="785"/>
      <point x="214" y="692" type="qcurve" smooth="yes"/>
      <point x="214" y="611" type="line"/>
      <point x="188" y="631"/>
      <point x="171" y="634" type="qcurve"/>
      <point x="139" y="637"/>
      <point x="96" y="591" type="qcurve"/>
      <point x="91" y="549" type="line"/>
      <point x="147" y="605"/>
      <point x="169" y="601" type="qcurve"/>
      <point x="178" y="601"/>
      <point x="206" y="579" type="qcurve"/>
      <point x="212" y="574" type="line"/>
      <point x="214" y="572" type="line"/>
      <point x="214" y="446" type="line"/>
      <point x="181" y="476"/>
      <point x="139" y="476" type="qcurve" smooth="yes"/>
      <point x="39" y="476"/>
      <point x="39" y="355" type="qcurve" smooth="yes"/>
      <point x="39" y="114" type="line" smooth="yes"/>
      <point x="39" y="-8"/>
      <point x="144" y="-8" type="qcurve" smooth="yes"/>
      <point x="246" y="-8"/>
      <point x="246" y="114" type="qcurve" smooth="yes"/>
      <point x="246" y="551" type="line"/>
      <point x="255" y="547"/>
      <point x="261" y="547" type="qcurve" smooth="yes"/>
      <point x="293" y="544"/>
      <point x="336" y="590" type="qcurve"/>
    </contour>
    <contour>
      <point x="214" y="112" type="line" smooth="yes"/>
      <point x="214" y="17"/>
      <point x="74" y="17"/>
      <point x="74" y="112" type="qcurve" smooth="yes"/>
      <point x="74" y="356" type="line" smooth="yes"/>
      <point x="74" y="450"/>
      <point x="139" y="450" type="qcurve" smooth="yes"/>
      <point x="214" y="450"/>
      <point x="214" y="356" type="qcurve" smooth="yes"/>
    </contour>
  </outline>
</glyph>
<glyph name="ntilde" format="1">
  <advance width="285"/>
  <unicode hex="00F1"/>
  <outline>
    <contour>
      <point x="266" y="937" type="line"/>
      <point x="214" y="882"/>
      <point x="190" y="885" type="qcurve" smooth="yes"/>
      <point x="175" y="887"/>
      <point x="145" y="911" type="qcurve" smooth="yes"/>
      <point x="114" y="936"/>
      <point x="97" y="938" type="qcurve" smooth="yes"/>
      <point x="66" y="942"/>
      <point x="22" y="896" type="qcurve"/>
      <point x="17" y="853" type="line"/>
      <point x="71" y="908"/>
      <point x="95" y="907" type="qcurve" smooth="yes"/>
      <point x="106" y="906"/>
      <point x="132" y="883" type="qcurve"/>
      <point x="139" y="878" type="line"/>
      <point x="169" y="854"/>
      <point x="187" y="852" type="qcurve" smooth="yes"/>
      <point x="222" y="849"/>
      <point x="262" y="895" type="qcurve"/>
    </contour>
    <contour>
      <point x="246" y="-8" type="line"/>
      <point x="246" y="681" type="line" smooth="yes"/>
      <point x="246" y="803"/>
      <point x="142" y="803" type="qcurve" smooth="yes"/>
      <point x="96" y="803"/>
      <point x="70" y="780" type="qcurve"/>
      <point x="70" y="803" type="line"/>
      <point x="36" y="803" type="line"/>
      <point x="36" y="-8" type="line"/>
      <point x="72" y="-8" type="line"/>
      <point x="72" y="683" type="line" smooth="yes"/>
      <point x="72" y="778"/>
      <point x="212" y="778"/>
      <point x="212" y="683" type="qcurve" smooth="yes"/>
      <point x="212" y="-8" type="line"/>
    </contour>
  </outline>
</glyph>
<glyph name="ograve" format="1">
  <advance width="285"/>
  <unicode hex="00F2"/>
  <outline>
    <contour>
      <point x="246" y="114" type="qcurve" smooth="yes"/>
      <point x="246" y="690" type="line" smooth="yes"/>
      <point x="246" y="811"/>
      <point x="142" y="811" type="qcurve" smooth="yes"/>
      <point x="39" y="811"/>
      <point x="39" y="690" type="qcurve" smooth="yes"/>
      <point x="39" y="114" type="line" smooth="yes"/>
      <point x="39" y="-8"/>
      <point x="142" y="-8" type="qcurve" smooth="yes"/>
      <point x="246" y="-8"/>
    </contour>
    <contour>
      <point x="212" y="112" type="line" smooth="yes"/>
      <point x="212" y="17"/>
      <point x="72" y="17"/>
      <point x="72" y="112" type="qcurve" smooth="yes"/>
      <point x="72" y="692" type="line" smooth="yes"/>
      <point x="72" y="785"/>
      <point x="212" y="785"/>
      <point x="212" y="692" type="qcurve" smooth="yes"/>
    </contour>
    <contour>
      <point x="191" y="865" type="line"/>
      <point x="129" y="987" type="line"/>
      <point x="94" y="971" type="line"/>
      <point x="156" y="847" type="line"/>
    </contour>
  </outline>
</glyph>
<glyph name="ocircumflex" format="1">
  <advance width="285"/>
  <unicode hex="00F4"/>
  <outline>
    <contour>
      <point x="246" y="114" type="qcurve" smooth="yes"/>
      <point x="246" y="690" type="line" smooth="yes"/>
      <point x="246" y="811"/>
      <point x="142" y="811" type="qcurve" smooth="yes"/>
      <point x="39" y="811"/>
      <point x="39" y="690" type="qcurve" smooth="yes"/>
      <point x="39" y="114" type="line" smooth="yes"/>
      <point x="39" y="-8"/>
      <point x="142" y="-8" type="qcurve" smooth="yes"/>
      <point x="246" y="-8"/>
    </contour>
    <contour>
      <point x="212" y="112" type="line" smooth="yes"/>
      <point x="212" y="17"/>
      <point x="72" y="17"/>
      <point x="72" y="112" type="qcurve" smooth="yes"/>
      <point x="72" y="692" type="line" smooth="yes"/>
      <point x="72" y="785"/>
      <point x="212" y="785"/>
      <point x="212" y="692" type="qcurve" smooth="yes"/>
    </contour>
    <contour>
      <point x="207" y="842" type="line"/>
      <point x="161" y="997" type="line"/>
      <point x="124" y="997" type="line"/>
      <point x="79" y="842" type="line"/>
      <point x="111" y="842" type="line"/>
      <point x="142" y="937" type="line"/>
      <point x="175" y="842" type="line"/>
    </contour>
  </outline>
</glyph>
<glyph name="divide" format="1">
  <advance width="377"/>
  <unicode hex="00F7"/>
  <outline>
    <contour>
      <point x="354" y="324" type="line"/>
      <point x="354" y="355" type="line"/>
      <point x="25" y="355" type="line"/>
      <point x="25" y="324" type="line"/>
    </contour>
    <contour>
      <point x="205" y="205" type="line"/>
      <point x="205" y="242" type="line"/>
      <point x="172" y="242" type="line"/>
      <point x="172" y="205" type="line"/>
    </contour>
    <contour>
      <point x="205" y="424" type="line"/>
      <point x="205" y="461" type="line"/>
      <point x="172" y="461" type="line"/>
      <point x="172" y="424" type="line"/>
    </contour>
  </outline>
</glyph>
<glyph name="uacute" format="1">
  <advance width="285"/>
  <unicode hex="00FA"/>
  <outline>
    <contour>
      <point x="246" y="114" type="qcurve" smooth="yes"/>
      <point x="246" y="804" type="line"/>
      <point x="212" y="804" type="line"/>
      <point x="212" y="112" type="line" smooth="yes"/>
      <point x="212" y="17"/>
      <point x="72" y="17"/>
      <point x="72" y="112" type="qcurve" smooth="yes"/>
      <point x="72" y="804" type="line"/>
      <point x="39" y="804" type="line"/>
      <point x="39" y="114" type="line" smooth="yes"/>
      <point x="39" y="-8"/>
      <point x="142" y="-8" type="qcurve" smooth="yes"/>
      <point x="246" y="-8"/>
    </contour>
    <contour>
      <point x="191" y="971" type="line"/>
      <point x="156" y="987" type="line"/>
      <point x="94" y="865" type="line"/>
      <point x="129" y="847" type="line"/>
    </contour>
  </outline>
</glyph>
<glyph name="udieresis" format="1">
  <advance width="285"/>
  <unicode hex="00FC"/>
  <outline>
    <contour>
      <point x="246" y="114" type="qcurve" smooth="yes"/>
      <point x="246" y="804" type="line"/>
      <point x="212" y="804" type="line"/>
      <point x="212" y="112" type="line" smooth="yes"/>
      <point x="212" y="17"/>
      <point x="72" y="17"/>
      <point x="72" y="112" type="qcurve" smooth="yes"/>
      <point x="72" y="804" type="line"/>
      <point x="39" y="804" type="line"/>
      <point x="39" y="114" type="line" smooth="yes"/>
      <point x="39" y="-8"/>
      <point x="142" y="-8" type="qcurve" smooth="yes"/>
      <point x="246" y="-8"/>
    </contour>
    <contour>
      <point x="207" y="889" type="line"/>
      <point x="207" y="926" type="line"/>
      <point x="175" y="926" type="line"/>
      <point x="175" y="889" type="line"/>
    </contour>
    <contour>
      <point x="109" y="889" type="line"/>
      <point x="109" y="926" type="line"/>
      <point x="77" y="926" type="line"/>
      <point x="77" y="889" type="line"/>
    </contour>
  </outline>
</glyph>
<glyph name="thorn" format="1">
  <advance width="275"/>
  <unicode hex="00FE"/>
  <outline>
    <contour>
      <point x="241" y="266" type="qcurve" smooth="yes"/>
      <point x="241" y="531" type="line" smooth="yes"/>
      <point x="241" y="652"/>
      <point x="136" y="652" type="qcurve" smooth="yes"/>
      <point x="89" y="652"/>
      <point x="66" y="632" type="qcurve"/>
      <point x="66" y="804" type="line"/>
      <point x="34" y="804" type="line"/>
      <point x="34" y="0" type="line"/>
      <point x="66" y="0" type="line"/>
      <point x="66" y="163" type="line"/>
      <point x="89" y="143"/>
      <point x="136" y="143" type="qcurve" smooth="yes"/>
      <point x="241" y="143"/>
    </contour>
    <contour>
      <point x="207" y="263" type="line" smooth="yes"/>
      <point x="207" y="169"/>
      <point x="136" y="169" type="qcurve" smooth="yes"/>
      <point x="67" y="169"/>
      <point x="67" y="263" type="qcurve" smooth="yes"/>
      <point x="67" y="532" type="line" smooth="yes"/>
      <point x="67" y="627"/>
      <point x="136" y="627" type="qcurve" smooth="yes"/>
      <point x="207" y="627"/>
      <point x="207" y="532" type="qcurve" smooth="yes"/>
    </contour>
  </outline>
</glyph>
<glyph name="dotlessi" format="1">
  <advance width="116"/>
  <unicode hex="0131"/>
  <outline>
    <contour>
      <point x="75" y="0" type="line"/>
      <point x="75" y="681" type="line"/>
      <point x="41" y="681" type="line"/>
      <point x="41" y="0" type="line"/>
    </contour>
  </outline>
</glyph>
<glyph name="Lslash" format="1">
  <advance width="246"/>
  <unicode hex="0141"/>
  <outline>
    <contour>
      <point x="169" y="428" type="line"/>
      <point x="156" y="456" type="line"/>
      <point x="75" y="415" type="line"/>
      <point x="75" y="804" type="line"/>
      <point x="41" y="804" type="line"/>
      <point x="41" y="397" type="line"/>
      <point x="-54" y="349" type="line"/>
      <point x="-41" y="321" type="line"/>
      <point x="41" y="363" type="line"/>
      <point x="41" y="0" type="line"/>
      <point x="246" y="0" type="line"/>
      <point x="246" y="26" type="line"/>
      <point x="75" y="26" type="line"/>
      <point x="75" y="380" type="line"/>
    </contour>
  </outline>
</glyph>
<glyph name="OE" format="1">
  <advance width="449"/>
  <unicode hex="0152"/>
  <outline>
    <contour>
      <point x="417" y="0" type="line"/>
      <point x="417" y="26" type="line"/>
      <point x="247" y="26" type="line"/>
      <point x="247" y="451" type="line"/>
      <point x="417" y="451" type="line"/>
      <point x="417" y="476" type="line"/>
      <point x="247" y="476" type="line"/>
      <point x="247" y="777" type="line"/>
      <point x="417" y="777" type="line"/>
      <point x="417" y="804" type="line"/>
      <point x="214" y="804" type="line"/>
      <point x="214" y="789" type="line"/>
      <point x="189" y="811"/>
      <point x="142" y="811" type="qcurve" smooth="yes"/>
      <point x="39" y="811"/>
      <point x="39" y="690" type="qcurve" smooth="yes"/>
      <point x="39" y="114" type="line" smooth="yes"/>
      <point x="39" y="-8"/>
      <point x="142" y="-8" type="qcurve" smooth="yes"/>
      <point x="185" y="-8"/>
      <point x="214" y="15" type="qcurve"/>
      <point x="214" y="0" type="line"/>
    </contour>
    <contour>
      <point x="212" y="112" type="line" smooth="yes"/>
      <point x="212" y="17"/>
      <point x="72" y="17"/>
      <point x="72" y="112" type="qcurve" smooth="yes"/>
      <point x="72" y="692" type="line" smooth="yes"/>
      <point x="72" y="785"/>
      <point x="212" y="785"/>
      <point x="212" y="692" type="qcurve" smooth="yes"/>
    </contour>
  </outline>
</glyph>
<glyph name="oe" format="1">
  <advance width="456"/>
  <unicode hex="0153"/>
  <outline>
    <contour>
      <point x="421" y="114" type="qcurve" smooth="yes"/>
      <point x="421" y="131" type="line"/>
      <point x="387" y="131" type="line"/>
      <point x="387" y="112" type="line" smooth="yes"/>
      <point x="387" y="17"/>
      <point x="247" y="17"/>
      <point x="247" y="112" type="qcurve" smooth="yes"/>
      <point x="247" y="464" type="line"/>
      <point x="421" y="464" type="line"/>
      <point x="421" y="679" type="line" smooth="yes"/>
      <point x="421" y="801"/>
      <point x="317" y="801" type="qcurve" smooth="yes"/>
      <point x="254" y="801"/>
      <point x="230" y="756" type="qcurve"/>
      <point x="206" y="801"/>
      <point x="142" y="801" type="qcurve" smooth="yes"/>
      <point x="39" y="801"/>
      <point x="39" y="679" type="qcurve" smooth="yes"/>
      <point x="39" y="114" type="line" smooth="yes"/>
      <point x="39" y="-8"/>
      <point x="142" y="-8" type="qcurve" smooth="yes"/>
      <point x="206" y="-8"/>
      <point x="230" y="37" type="qcurve"/>
      <point x="254" y="-8"/>
      <point x="317" y="-8" type="qcurve" smooth="yes"/>
      <point x="421" y="-8"/>
    </contour>
    <contour>
      <point x="212" y="112" type="line" smooth="yes"/>
      <point x="212" y="17"/>
      <point x="72" y="17"/>
      <point x="72" y="112" type="qcurve" smooth="yes"/>
      <point x="72" y="681" type="line" smooth="yes"/>
      <point x="72" y="775"/>
      <point x="212" y="775"/>
      <point x="212" y="681" type="qcurve" smooth="yes"/>
    </contour>
    <contour>
      <point x="387" y="495" type="line"/>
      <point x="247" y="495" type="line"/>
      <point x="247" y="681" type="line" smooth="yes"/>
      <point x="247" y="775"/>
      <point x="387" y="775"/>
      <point x="387" y="681" type="qcurve" smooth="yes"/>
    </contour>
  </outline>
</glyph>
<glyph name="scaron" format="1">
  <advance width="285"/>
  <unicode hex="0161"/>
  <outline>
    <contour>
      <point x="246" y="382" type="line"/>
      <point x="245" y="382" type="line"/>
      <point x="236" y="471"/>
      <point x="144" y="471" type="qcurve" smooth="yes"/>
      <point x="74" y="471"/>
      <point x="74" y="566" type="qcurve" smooth="yes"/>
      <point x="74" y="692" type="line" smooth="yes"/>
      <point x="74" y="786"/>
      <point x="214" y="786"/>
      <point x="214" y="692" type="qcurve" smooth="yes"/>
      <point x="214" y="627" type="line"/>
      <point x="246" y="627" type="line"/>
      <point x="246" y="690" type="line" smooth="yes"/>
      <point x="246" y="811"/>
      <point x="144" y="811" type="qcurve" smooth="yes"/>
      <point x="39" y="811"/>
      <point x="39" y="690" type="qcurve" smooth="yes"/>
      <point x="39" y="569" type="line" smooth="yes"/>
      <point x="39" y="446"/>
      <point x="144" y="446" type="qcurve" smooth="yes"/>
      <point x="214" y="446"/>
      <point x="214" y="371" type="qcurve" smooth="yes"/>
      <point x="214" y="112" type="line" smooth="yes"/>
      <point x="214" y="19"/>
      <point x="74" y="19"/>
      <point x="74" y="112" type="qcurve" smooth="yes"/>
      <point x="74" y="171" type="line"/>
      <point x="39" y="171" type="line"/>
      <point x="39" y="114" type="line" smooth="yes"/>
      <point x="39" y="-8"/>
      <point x="144" y="-8" type="qcurve" smooth="yes"/>
      <point x="246" y="-8"/>
      <point x="246" y="114" type="qcurve" smooth="yes"/>
    </contour>
    <contour>
      <point x="207" y="997" type="line"/>
      <point x="175" y="996" type="line"/>
      <point x="142" y="901" type="line"/>
      <point x="111" y="997" type="line"/>
      <point x="79" y="997" type="line"/>
      <point x="124" y="842" type="line"/>
      <point x="161" y="842" type="line"/>
    </contour>
  </outline>
</glyph>
<glyph name="florin" format="1">
  <advance width="301"/>
  <unicode hex="0192"/>
  <outline>
    <contour>
      <point x="280" y="707" type="line" smooth="yes"/>
      <point x="281" y="710"/>
      <point x="281" y="716" type="qcurve" smooth="yes"/>
      <point x="281" y="725" type="line" smooth="yes"/>
      <point x="281" y="811"/>
      <point x="206" y="811" type="qcurve" smooth="yes"/>
      <point x="123" y="811"/>
      <point x="115" y="707" type="qcurve" smooth="yes"/>
      <point x="56" y="-20" type="line" smooth="yes"/>
      <point x="50" y="-96"/>
      <point x="0" y="-96" type="qcurve" smooth="yes"/>
      <point x="-45" y="-96"/>
      <point x="-45" y="-35" type="qcurve" smooth="yes"/>
      <point x="-45" y="-23"/>
      <point x="-44" y="-20" type="qcurve"/>
      <point x="-44" y="-10" type="line"/>
      <point x="-74" y="-10" type="line"/>
      <point x="-75" y="-20" type="line" smooth="yes"/>
      <point x="-76" y="-23"/>
      <point x="-76" y="-29" type="qcurve" smooth="yes"/>
      <point x="-76" y="-38" type="line" smooth="yes"/>
      <point x="-76" y="-123"/>
      <point x="-1" y="-123" type="qcurve" smooth="yes"/>
      <point x="83" y="-123"/>
      <point x="90" y="-20" type="qcurve"/>
      <point x="134" y="522" type="line"/>
      <point x="205" y="522" type="line"/>
      <point x="207" y="549" type="line"/>
      <point x="135" y="549" type="line"/>
      <point x="149" y="709" type="line"/>
      <point x="153" y="785"/>
      <point x="205" y="785" type="qcurve" smooth="yes"/>
      <point x="250" y="785"/>
      <point x="250" y="724" type="qcurve" smooth="yes"/>
      <point x="250" y="712"/>
      <point x="249" y="709" type="qcurve"/>
      <point x="249" y="697" type="line"/>
      <point x="279" y="697" type="line"/>
    </contour>
  </outline>
</glyph>
<glyph name="mu" format="1">
  <advance width="285"/>
  <unicode hex="03BC"/>
  <outline>
    <contour>
      <point x="252" y="81" type="qcurve"/>
      <point x="252" y="107" type="line"/>
      <point x="182" y="107"/>
      <point x="182" y="197" type="qcurve" smooth="yes"/>
      <point x="182" y="209" type="line"/>
      <point x="246" y="230"/>
      <point x="246" y="326" type="qcurve" smooth="yes"/>
      <point x="246" y="786" type="line"/>
      <point x="212" y="786" type="line"/>
      <point x="212" y="324" type="line" smooth="yes"/>
      <point x="212" y="229"/>
      <point x="72" y="229"/>
      <point x="72" y="324" type="qcurve" smooth="yes"/>
      <point x="72" y="786" type="line"/>
      <point x="39" y="786" type="line"/>
      <point x="39" y="-2" type="line"/>
      <point x="72" y="-2" type="line"/>
      <point x="72" y="227" type="line"/>
      <point x="99" y="202"/>
      <point x="142" y="204" type="qcurve"/>
      <point x="149" y="204" type="line"/>
      <point x="149" y="203" type="line" smooth="yes"/>
      <point x="149" y="81"/>
    </contour>
  </outline>
</glyph>
<glyph name="emdash" format="1">
  <advance width="886"/>
  <unicode hex="2014"/>
  <outline>
    <contour>
      <point x="887" y="327" type="line"/>
      <point x="887" y="351" type="line"/>
      <point x="-1" y="351" type="line"/>
      <point x="-1" y="327" type="line"/>
    </contour>
  </outline>
</glyph>
<glyph name="quoteleft" format="1">
  <advance width="142"/>
  <unicode hex="2018"/>
  <outline>
    <contour>
      <point x="117" y="627" type="line"/>
      <point x="117" y="692" type="line"/>
      <point x="76" y="692" type="line"/>
      <point x="106" y="806" type="line"/>
      <point x="74" y="806" type="line"/>
      <point x="26" y="630" type="line"/>
      <point x="25" y="627" type="line"/>
    </contour>
  </outline>
</glyph>
<glyph name="quotedblleft" format="1">
  <advance width="289"/>
  <unicode hex="201C"/>
  <outline>
    <contour>
      <point x="265" y="627" type="line"/>
      <point x="265" y="692" type="line"/>
      <point x="224" y="692" type="line"/>
      <point x="254" y="806" type="line"/>
      <point x="222" y="806" type="line"/>
      <point x="174" y="630" type="line"/>
      <point x="172" y="627" type="line"/>
    </contour>
    <contour>
      <point x="117" y="627" type="line"/>
      <point x="117" y="692" type="line"/>
      <point x="76" y="692" type="line"/>
      <point x="106" y="806" type="line"/>
      <point x="74" y="806" type="line"/>
      <point x="26" y="630" type="line"/>
      <point x="25" y="627" type="line"/>
    </contour>
  </outline>
</glyph>
<glyph name="dagger" format="1">
  <advance width="285"/>
  <unicode hex="2020"/>
  <outline>
    <contour>
      <point x="235" y="644" type="line"/>
      <point x="235" y="669" type="line"/>
      <point x="157" y="669" type="line"/>
      <point x="157" y="804" type="line"/>
      <point x="126" y="804" type="line"/>
      <point x="126" y="669" type="line"/>
      <point x="50" y="669" type="line"/>
      <point x="50" y="644" type="line"/>
      <point x="126" y="644" type="line"/>
      <point x="126" y="-39" type="line"/>
      <point x="157" y="-39" type="line"/>
      <point x="157" y="644" type="line"/>
    </contour>
  </outline>
</glyph>
<glyph name="daggerdbl" format="1">
  <advance width="285"/>
  <unicode hex="2021"/>
  <outline>
    <contour>
      <point x="235" y="71" type="line"/>
      <point x="235" y="97" type="line"/>
      <point x="157" y="97" type="line"/>
      <point x="157" y="646" type="line"/>
      <point x="235" y="646" type="line"/>
      <point x="235" y="672" type="line"/>
      <point x="157" y="672" type="line"/>
      <point x="157" y="804" type="line"/>
      <point x="126" y="804" type="line"/>
      <point x="126" y="672" type="line"/>
      <point x="50" y="672" type="line"/>
      <point x="50" y="646" type="line"/>
      <point x="126" y="646" type="line"/>
      <point x="126" y="97" type="line"/>
      <point x="50" y="97" type="line"/>
      <point x="50" y="71" type="line"/>
      <point x="126" y="71" type="line"/>
      <point x="126" y="-39" type="line"/>
      <point x="157" y="-39" type="line"/>
      <point x="157" y="71" type="line"/>
    </contour>
  </outline>
</glyph>
<glyph name="perthousand" format="1">
  <advance width="792"/>
  <unicode hex="2030"/>
  <outline>
    <contour>
      <point x="764" y="116" type="qcurve" smooth="yes"/>
      <point x="764" y="276" type="line" smooth="yes"/>
      <point x="764" y="399"/>
      <point x="659" y="399" type="qcurve" smooth="yes"/>
      <point x="556" y="399"/>
      <point x="556" y="276" type="qcurve" smooth="yes"/>
      <point x="556" y="116" type="line" smooth="yes"/>
      <point x="556" y="50"/>
      <point x="580" y="22" type="qcurve" smooth="yes"/>
      <point x="595" y="6"/>
      <point x="601" y="1" type="qcurve"/>
      <point x="614" y="-5"/>
      <point x="637" y="-5" type="qcurve" smooth="yes"/>
      <point x="708" y="-5"/>
      <point x="736" y="22" type="qcurve"/>
      <point x="764" y="47"/>
    </contour>
    <contour>
      <point x="517" y="116" type="qcurve" smooth="yes"/>
      <point x="517" y="276" type="line" smooth="yes"/>
      <point x="517" y="399"/>
      <point x="414" y="399" type="qcurve" smooth="yes"/>
      <point x="310" y="399"/>
      <point x="310" y="276" type="qcurve" smooth="yes"/>
      <point x="310" y="116" type="line" smooth="yes"/>
      <point x="310" y="51"/>
      <point x="335" y="22" type="qcurve" smooth="yes"/>
      <point x="348" y="6"/>
      <point x="356" y="1" type="qcurve" smooth="yes"/>
      <point x="368" y="-5"/>
      <point x="392" y="-5" type="qcurve" smooth="yes"/>
      <point x="462" y="-5"/>
      <point x="490" y="22" type="qcurve" smooth="yes"/>
      <point x="517" y="48"/>
    </contour>
    <contour>
      <point x="251" y="525" type="qcurve" smooth="yes"/>
      <point x="251" y="685" type="line" smooth="yes"/>
      <point x="251" y="806"/>
      <point x="146" y="806" type="qcurve" smooth="yes"/>
      <point x="44" y="806"/>
      <point x="44" y="685" type="qcurve" smooth="yes"/>
      <point x="44" y="525" type="line" smooth="yes"/>
      <point x="44" y="402"/>
      <point x="146" y="402" type="qcurve" smooth="yes"/>
      <point x="251" y="402"/>
    </contour>
    <contour>
      <point x="730" y="114" type="line" smooth="yes"/>
      <point x="730" y="20"/>
      <point x="659" y="20" type="qcurve" smooth="yes"/>
      <point x="616" y="20"/>
      <point x="601" y="47" type="qcurve"/>
      <point x="596" y="60"/>
      <point x="593" y="74" type="qcurve" smooth="yes"/>
      <point x="590" y="90"/>
      <point x="590" y="114" type="qcurve" smooth="yes"/>
      <point x="590" y="279" type="line" smooth="yes"/>
      <point x="590" y="371"/>
      <point x="659" y="371" type="qcurve" smooth="yes"/>
      <point x="730" y="371"/>
      <point x="730" y="279" type="qcurve" smooth="yes"/>
    </contour>
    <contour>
      <point x="484" y="114" type="line" smooth="yes"/>
      <point x="484" y="20"/>
      <point x="414" y="20" type="qcurve" smooth="yes"/>
      <point x="370" y="20"/>
      <point x="355" y="47" type="qcurve" smooth="yes"/>
      <point x="344" y="67"/>
      <point x="344" y="114" type="qcurve" smooth="yes"/>
      <point x="344" y="279" type="line" smooth="yes"/>
      <point x="344" y="371"/>
      <point x="484" y="371"/>
      <point x="484" y="279" type="qcurve" smooth="yes"/>
    </contour>
    <contour>
      <point x="217" y="522" type="line" smooth="yes"/>
      <point x="217" y="429"/>
      <point x="146" y="429" type="qcurve" smooth="yes"/>
      <point x="102" y="429"/>
      <point x="89" y="456" type="qcurve"/>
      <point x="77" y="477"/>
      <point x="77" y="522" type="qcurve" smooth="yes"/>
      <point x="77" y="687" type="line" smooth="yes"/>
      <point x="77" y="780"/>
      <point x="146" y="780" type="qcurve" smooth="yes"/>
      <point x="217" y="780"/>
      <point x="217" y="687" type="qcurve" smooth="yes"/>
    </contour>
    <contour>
      <point x="464" y="811" type="line"/>
      <point x="432" y="811" type="line"/>
      <point x="92" y="-8" type="line"/>
      <point x="124" y="-8" type="line"/>
    </contour>
  </outline>
</glyph>
<glyph name="trademark" format="1">
  <advance width="719"/>
  <unicode hex="2122"/>
  <outline>
    <contour>
      <point x="681" y="437" type="line"/>
      <point x="681" y="804" type="line"/>
      <point x="646" y="804" type="line"/>
      <point x="490" y="561" type="line"/>
      <point x="339" y="804" type="line"/>
      <point x="304" y="804" type="line"/>
      <point x="304" y="437" type="line"/>
      <point x="337" y="437" type="line"/>
      <point x="337" y="749" type="line"/>
      <point x="476" y="525" type="line"/>
      <point x="504" y="525" type="line"/>
      <point x="649" y="745" type="line"/>
      <point x="649" y="437" type="line"/>
    </contour>
    <contour>
      <point x="241" y="776" type="line"/>
      <point x="241" y="804" type="line"/>
      <point x="2" y="804" type="line"/>
      <point x="2" y="776" type="line"/>
      <point x="105" y="776" type="line"/>
      <point x="105" y="437" type="line"/>
      <point x="139" y="437" type="line"/>
      <point x="139" y="776" type="line"/>
    </contour>
  </outline>
</glyph>
<glyph name="apple" format="1">
  <advance width="884"/>
  <outline>
    <contour>
      <point x="822" y="220" type="line"/>
      <point x="727" y="214" type="line"/>
      <point x="729" y="314" type="line"/>
      <point x="619" y="314" type="line"/>
      <point x="669" y="390" type="line"/>
      <point x="609" y="452" type="line"/>
      <point x="735" y="480" type="line"/>
      <point x="699" y="554" type="line"/>
      <point x="805" y="584" type="line"/>
      <point x="609" y="674" type="line"/>
      <point x="527" y="655" type="line"/>
      <point x="459" y="636" type="line"/>
      <point x="387" y="654" type="line"/>
      <point x="306" y="672" type="line"/>
      <point x="126" y="592" type="line"/>
      <point x="61" y="402" type="line"/>
      <point x="179" y="77" type="line"/>
      <point x="319" y="-19" type="line"/>
      <point x="460" y="17" type="line"/>
      <point x="527" y="-1" type="line"/>
      <point x="599" y="-19" type="line"/>
      <point x="740" y="67" type="line"/>
    </contour>
    <contour>
      <point x="676" y="944" type="line"/>
      <point x="511" y="815" type="line"/>
      <point x="456" y="685" type="line"/>
      <point x="457" y="665" type="line"/>
      <point x="627" y="886" type="line"/>
      <point x="631" y="881" type="line"/>
      <point x="470" y="664" type="line"/>
      <point x="586" y="725" type="line"/>
      <point x="637" y="849" type="line"/>
    </contour>
  </outline>
</glyph>
